%TF.GenerationSoftware,KiCad,Pcbnew,9.0.4*%
%TF.CreationDate,2025-09-26T16:15:54-04:00*%
%TF.ProjectId,Shawn_PCB_Business_card,53686177-6e5f-4504-9342-5f427573696e,rev?*%
%TF.SameCoordinates,Original*%
%TF.FileFunction,Soldermask,Top*%
%TF.FilePolarity,Negative*%
%FSLAX46Y46*%
G04 Gerber Fmt 4.6, Leading zero omitted, Abs format (unit mm)*
G04 Created by KiCad (PCBNEW 9.0.4) date 2025-09-26 16:15:54*
%MOMM*%
%LPD*%
G01*
G04 APERTURE LIST*
G04 Aperture macros list*
%AMRoundRect*
0 Rectangle with rounded corners*
0 $1 Rounding radius*
0 $2 $3 $4 $5 $6 $7 $8 $9 X,Y pos of 4 corners*
0 Add a 4 corners polygon primitive as box body*
4,1,4,$2,$3,$4,$5,$6,$7,$8,$9,$2,$3,0*
0 Add four circle primitives for the rounded corners*
1,1,$1+$1,$2,$3*
1,1,$1+$1,$4,$5*
1,1,$1+$1,$6,$7*
1,1,$1+$1,$8,$9*
0 Add four rect primitives between the rounded corners*
20,1,$1+$1,$2,$3,$4,$5,0*
20,1,$1+$1,$4,$5,$6,$7,0*
20,1,$1+$1,$6,$7,$8,$9,0*
20,1,$1+$1,$8,$9,$2,$3,0*%
G04 Aperture macros list end*
%ADD10C,0.500000*%
%ADD11C,0.300000*%
%ADD12C,0.250000*%
%ADD13C,0.200000*%
%ADD14C,1.000000*%
%ADD15RoundRect,0.147500X-0.172500X0.147500X-0.172500X-0.147500X0.172500X-0.147500X0.172500X0.147500X0*%
%ADD16RoundRect,0.147500X0.172500X-0.147500X0.172500X0.147500X-0.172500X0.147500X-0.172500X-0.147500X0*%
%ADD17RoundRect,0.135000X0.185000X-0.135000X0.185000X0.135000X-0.185000X0.135000X-0.185000X-0.135000X0*%
%ADD18RoundRect,0.140000X0.170000X-0.140000X0.170000X0.140000X-0.170000X0.140000X-0.170000X-0.140000X0*%
%ADD19RoundRect,0.135000X-0.185000X0.135000X-0.185000X-0.135000X0.185000X-0.135000X0.185000X0.135000X0*%
%ADD20RoundRect,0.135000X-0.135000X-0.185000X0.135000X-0.185000X0.135000X0.185000X-0.135000X0.185000X0*%
%ADD21R,0.370000X0.450000*%
%ADD22R,0.270000X0.450000*%
%ADD23R,0.450000X0.270000*%
%ADD24RoundRect,0.135000X0.135000X0.185000X-0.135000X0.185000X-0.135000X-0.185000X0.135000X-0.185000X0*%
G04 APERTURE END LIST*
D10*
G36*
X112467027Y-63783293D02*
G01*
X114110293Y-62099483D01*
X114960747Y-62099483D01*
X113051989Y-64010195D01*
X114971738Y-66320000D01*
X114118597Y-66320000D01*
X112598186Y-64442016D01*
X112467027Y-64573175D01*
X112467027Y-66320000D01*
X111838102Y-66320000D01*
X111838102Y-62099483D01*
X112467027Y-62099483D01*
X112467027Y-63783293D01*
G37*
G36*
X116175611Y-62099483D02*
G01*
X116175611Y-66320000D01*
X115546685Y-66320000D01*
X115546685Y-62099483D01*
X116175611Y-62099483D01*
G37*
G36*
X119524913Y-62693482D02*
G01*
X117824738Y-62693482D01*
X117824738Y-63709532D01*
X119478018Y-63709532D01*
X119478018Y-64303531D01*
X117824738Y-64303531D01*
X117824738Y-65726001D01*
X119524913Y-65726001D01*
X119524913Y-66320000D01*
X117195813Y-66320000D01*
X117195813Y-62099483D01*
X119524913Y-62099483D01*
X119524913Y-62693482D01*
G37*
G36*
X121536140Y-62139562D02*
G01*
X121868387Y-62205371D01*
X122121870Y-62303600D01*
X122312456Y-62428967D01*
X122491367Y-62617485D01*
X122617582Y-62830343D01*
X122694741Y-63072464D01*
X122721563Y-63351228D01*
X122691955Y-63640304D01*
X122606166Y-63894237D01*
X122464375Y-64120593D01*
X122275493Y-64308909D01*
X122051718Y-64445364D01*
X121786357Y-64532386D01*
X123093545Y-66327815D01*
X122308793Y-66327815D01*
X121104431Y-64600530D01*
X120990126Y-64600530D01*
X120990126Y-66327815D01*
X120361200Y-66327815D01*
X120361200Y-64048541D01*
X120990126Y-64048541D01*
X121191382Y-64048541D01*
X121500086Y-64023793D01*
X121725124Y-63958187D01*
X121886446Y-63860290D01*
X121998351Y-63731934D01*
X122067683Y-63567888D01*
X122092638Y-63356845D01*
X122068843Y-63160991D01*
X122002474Y-63007996D01*
X121894677Y-62887497D01*
X121738187Y-62794988D01*
X121518585Y-62732683D01*
X121216050Y-62709113D01*
X120990126Y-62709113D01*
X120990126Y-64048541D01*
X120361200Y-64048541D01*
X120361200Y-62115115D01*
X121106141Y-62115115D01*
X121536140Y-62139562D01*
G37*
G36*
X127355827Y-66312184D02*
G01*
X126658514Y-66312184D01*
X126215457Y-65288318D01*
X124408060Y-65288318D01*
X123937893Y-66312184D01*
X123251570Y-66312184D01*
X124006156Y-64694319D01*
X124673308Y-64694319D01*
X125955827Y-64694319D01*
X125329588Y-63259637D01*
X124673308Y-64694319D01*
X124006156Y-64694319D01*
X125340579Y-61833258D01*
X127355827Y-66312184D01*
G37*
G36*
X127876064Y-66320000D02*
G01*
X127876064Y-61812498D01*
X130955478Y-65032595D01*
X130955478Y-62099483D01*
X131584403Y-62099483D01*
X131584403Y-66576943D01*
X128504989Y-63365150D01*
X128504989Y-66320000D01*
X127876064Y-66320000D01*
G37*
G36*
X134956909Y-63783293D02*
G01*
X136600174Y-62099483D01*
X137450628Y-62099483D01*
X135541870Y-64010195D01*
X137461619Y-66320000D01*
X136608479Y-66320000D01*
X135088067Y-64442016D01*
X134956909Y-64573175D01*
X134956909Y-66320000D01*
X134327983Y-66320000D01*
X134327983Y-62099483D01*
X134956909Y-62099483D01*
X134956909Y-63783293D01*
G37*
G36*
X140365666Y-62693482D02*
G01*
X138665492Y-62693482D01*
X138665492Y-63709532D01*
X140318772Y-63709532D01*
X140318772Y-64303531D01*
X138665492Y-64303531D01*
X138665492Y-65726001D01*
X140365666Y-65726001D01*
X140365666Y-66320000D01*
X138036567Y-66320000D01*
X138036567Y-62099483D01*
X140365666Y-62099483D01*
X140365666Y-62693482D01*
G37*
G36*
X141830879Y-62099483D02*
G01*
X141830879Y-65726001D01*
X143077739Y-65726001D01*
X143077739Y-66320000D01*
X141201954Y-66320000D01*
X141201954Y-62099483D01*
X141830879Y-62099483D01*
G37*
G36*
X144312387Y-62099483D02*
G01*
X144312387Y-65726001D01*
X145559246Y-65726001D01*
X145559246Y-66320000D01*
X143683461Y-66320000D01*
X143683461Y-62099483D01*
X144312387Y-62099483D01*
G37*
G36*
X146665178Y-64496727D02*
G01*
X145287160Y-62099483D01*
X146019888Y-62099483D01*
X146980984Y-63785980D01*
X147944766Y-62099483D01*
X148677495Y-62099483D01*
X147294103Y-64496727D01*
X147294103Y-66320000D01*
X146665178Y-66320000D01*
X146665178Y-64496727D01*
G37*
D11*
G36*
X121192646Y-87290221D02*
G01*
X122821746Y-89329649D01*
X123167522Y-89720122D01*
X123416172Y-89921938D01*
X123603564Y-90005413D01*
X123798718Y-90032763D01*
X123798718Y-90150000D01*
X121387430Y-90150000D01*
X121387430Y-90032763D01*
X121594277Y-89999307D01*
X121682659Y-89960101D01*
X121733279Y-89901254D01*
X121749520Y-89832178D01*
X121727927Y-89738587D01*
X121638918Y-89570076D01*
X121435057Y-89285990D01*
X120372906Y-87954256D01*
X120202242Y-88094085D01*
X120202242Y-89348883D01*
X120216070Y-89686434D01*
X120243152Y-89812028D01*
X120299947Y-89893612D01*
X120400078Y-89968039D01*
X120535368Y-90013634D01*
X120772549Y-90032763D01*
X120772549Y-90150000D01*
X118436366Y-90150000D01*
X118436366Y-90032763D01*
X118589934Y-90032763D01*
X118778962Y-90012704D01*
X118914471Y-89959185D01*
X118990744Y-89895058D01*
X119050942Y-89790657D01*
X119075695Y-89673339D01*
X119088494Y-89348883D01*
X119088494Y-86320272D01*
X119075828Y-85988871D01*
X119050942Y-85864453D01*
X118997091Y-85782014D01*
X118898901Y-85704780D01*
X118772220Y-85655236D01*
X118589934Y-85636392D01*
X118436366Y-85636392D01*
X118436366Y-85519155D01*
X120741713Y-85519155D01*
X120741713Y-85636392D01*
X120522213Y-85656413D01*
X120383287Y-85706612D01*
X120305816Y-85770091D01*
X120243152Y-85871475D01*
X120216093Y-85992573D01*
X120202242Y-86320272D01*
X120202242Y-87723752D01*
X121920185Y-86349275D01*
X122147658Y-86139305D01*
X122251496Y-85992196D01*
X122278916Y-85887657D01*
X122244666Y-85775665D01*
X122132065Y-85684019D01*
X122029170Y-85657252D01*
X121759595Y-85636392D01*
X121759595Y-85519155D01*
X123566382Y-85519155D01*
X123566382Y-85636392D01*
X123338780Y-85669884D01*
X123185363Y-85724930D01*
X123008116Y-85842533D01*
X122548499Y-86205478D01*
X121192646Y-87290221D01*
G37*
D12*
G36*
X121330478Y-69863000D02*
G01*
X122114864Y-69863000D01*
X122114864Y-70160000D01*
X120698866Y-70160000D01*
X121431717Y-69271688D01*
X121612823Y-69041734D01*
X121724198Y-68878824D01*
X121769919Y-68790428D01*
X121794629Y-68714167D01*
X121802233Y-68647526D01*
X121790446Y-68553427D01*
X121756127Y-68471918D01*
X121698308Y-68399863D01*
X121623939Y-68344511D01*
X121539297Y-68311311D01*
X121441242Y-68299846D01*
X121341218Y-68310621D01*
X121260533Y-68340840D01*
X121194861Y-68389546D01*
X121141771Y-68458759D01*
X121101080Y-68553176D01*
X121074878Y-68679644D01*
X120757607Y-68679644D01*
X120788450Y-68508944D01*
X120835541Y-68370864D01*
X120896753Y-68259953D01*
X120971290Y-68171844D01*
X121059750Y-68103499D01*
X121164080Y-68053439D01*
X121287404Y-68021868D01*
X121433793Y-68010662D01*
X121575671Y-68022683D01*
X121702093Y-68057482D01*
X121815909Y-68114405D01*
X121919225Y-68194455D01*
X122006310Y-68292741D01*
X122067243Y-68399881D01*
X122104058Y-68517866D01*
X122116696Y-68649602D01*
X122106729Y-68762551D01*
X122076492Y-68874927D01*
X122024616Y-68988244D01*
X121970654Y-69077228D01*
X121887840Y-69193286D01*
X121660328Y-69473555D01*
X121330478Y-69863000D01*
G37*
G36*
X123715021Y-69573817D02*
G01*
X123943754Y-69573817D01*
X123943754Y-69863000D01*
X123715021Y-69863000D01*
X123715021Y-70163907D01*
X123400558Y-70163907D01*
X123400558Y-69863000D01*
X122364236Y-69863000D01*
X122562824Y-69573817D01*
X122913782Y-69573817D01*
X123400558Y-69573817D01*
X123400558Y-68867344D01*
X122913782Y-69573817D01*
X122562824Y-69573817D01*
X123715021Y-67895990D01*
X123715021Y-69573817D01*
G37*
G36*
X125043606Y-68021288D02*
G01*
X125150493Y-68052668D01*
X125251214Y-68105210D01*
X125347235Y-68180813D01*
X125439376Y-68282749D01*
X125520108Y-68404391D01*
X125584957Y-68544217D01*
X125633410Y-68704861D01*
X125664118Y-68889487D01*
X125674948Y-69101695D01*
X125664130Y-69313226D01*
X125633447Y-69497399D01*
X125585011Y-69657781D01*
X125520154Y-69797504D01*
X125439376Y-69919176D01*
X125347203Y-70021201D01*
X125251305Y-70096816D01*
X125150867Y-70149324D01*
X125044433Y-70180659D01*
X124930007Y-70191263D01*
X124815507Y-70180682D01*
X124708720Y-70149381D01*
X124607682Y-70096886D01*
X124510951Y-70021250D01*
X124417708Y-69919176D01*
X124337357Y-69797783D01*
X124272569Y-69657107D01*
X124223976Y-69494281D01*
X124193069Y-69305882D01*
X124182233Y-69089972D01*
X124496598Y-69089972D01*
X124505127Y-69267875D01*
X124529278Y-69422547D01*
X124567293Y-69556949D01*
X124617987Y-69673712D01*
X124688843Y-69780825D01*
X124763124Y-69849955D01*
X124841811Y-69889097D01*
X124927809Y-69902079D01*
X125013140Y-69889157D01*
X125091642Y-69850101D01*
X125166181Y-69780975D01*
X125237753Y-69673712D01*
X125289011Y-69559535D01*
X125327437Y-69427835D01*
X125351856Y-69275944D01*
X125360485Y-69100840D01*
X125351876Y-68925937D01*
X125327487Y-68773861D01*
X125289063Y-68641665D01*
X125237753Y-68526748D01*
X125166265Y-68420272D01*
X125091757Y-68351570D01*
X125013224Y-68312712D01*
X124927809Y-68299846D01*
X124843149Y-68312668D01*
X124765100Y-68351449D01*
X124690826Y-68420134D01*
X124619330Y-68526748D01*
X124567883Y-68640407D01*
X124529475Y-68770475D01*
X124505162Y-68919402D01*
X124496598Y-69089972D01*
X124182233Y-69089972D01*
X124182135Y-69088018D01*
X124192848Y-68882117D01*
X124223328Y-68701721D01*
X124271622Y-68543534D01*
X124336541Y-68404673D01*
X124417708Y-68282749D01*
X124509848Y-68180813D01*
X124605869Y-68105210D01*
X124706590Y-68052668D01*
X124813478Y-68021288D01*
X124928542Y-68010662D01*
X125043606Y-68021288D01*
G37*
G36*
X127356438Y-69863000D02*
G01*
X128140824Y-69863000D01*
X128140824Y-70160000D01*
X126724826Y-70160000D01*
X127457676Y-69271688D01*
X127638782Y-69041734D01*
X127750157Y-68878824D01*
X127795878Y-68790428D01*
X127820589Y-68714167D01*
X127828193Y-68647526D01*
X127816406Y-68553427D01*
X127782086Y-68471918D01*
X127724267Y-68399863D01*
X127649899Y-68344511D01*
X127565257Y-68311311D01*
X127467202Y-68299846D01*
X127367178Y-68310621D01*
X127286492Y-68340840D01*
X127220821Y-68389546D01*
X127167730Y-68458759D01*
X127127039Y-68553176D01*
X127100837Y-68679644D01*
X126783566Y-68679644D01*
X126814410Y-68508944D01*
X126861500Y-68370864D01*
X126922713Y-68259953D01*
X126997249Y-68171844D01*
X127085709Y-68103499D01*
X127190039Y-68053439D01*
X127313364Y-68021868D01*
X127459752Y-68010662D01*
X127601630Y-68022683D01*
X127728053Y-68057482D01*
X127841868Y-68114405D01*
X127945185Y-68194455D01*
X128032270Y-68292741D01*
X128093203Y-68399881D01*
X128130018Y-68517866D01*
X128142655Y-68649602D01*
X128132689Y-68762551D01*
X128102452Y-68874927D01*
X128050576Y-68988244D01*
X127996613Y-69077228D01*
X127913800Y-69193286D01*
X127686288Y-69473555D01*
X127356438Y-69863000D01*
G37*
G36*
X129718144Y-68148538D02*
G01*
X129215370Y-68834371D01*
X129285223Y-68826189D01*
X129330530Y-68823503D01*
X129454792Y-68835790D01*
X129568844Y-68871985D01*
X129675188Y-68932626D01*
X129775541Y-69020240D01*
X129857501Y-69122876D01*
X129915121Y-69233634D01*
X129949966Y-69354358D01*
X129961898Y-69487599D01*
X129948700Y-69628219D01*
X129910018Y-69756266D01*
X129845693Y-69874502D01*
X129753559Y-69984877D01*
X129643669Y-70076002D01*
X129525586Y-70139743D01*
X129397342Y-70178143D01*
X129256158Y-70191263D01*
X129116321Y-70178468D01*
X128987182Y-70140785D01*
X128866274Y-70077893D01*
X128751797Y-69987686D01*
X128657250Y-69878903D01*
X128591783Y-69763623D01*
X128552698Y-69639990D01*
X128539428Y-69505307D01*
X128539604Y-69503475D01*
X128853891Y-69503475D01*
X128866917Y-69609221D01*
X128905032Y-69702208D01*
X128969417Y-69785697D01*
X129052395Y-69850482D01*
X129145501Y-69888911D01*
X129252128Y-69902079D01*
X129356009Y-69889023D01*
X129447795Y-69850705D01*
X129530687Y-69785697D01*
X129596149Y-69701401D01*
X129634471Y-69609707D01*
X129647436Y-69507627D01*
X129634346Y-69400013D01*
X129596195Y-69306134D01*
X129532031Y-69222595D01*
X129448184Y-69156815D01*
X129355468Y-69118065D01*
X129250663Y-69104870D01*
X129145014Y-69118011D01*
X129052373Y-69156438D01*
X128969417Y-69221374D01*
X128905037Y-69304788D01*
X128866920Y-69397733D01*
X128853891Y-69503475D01*
X128539604Y-69503475D01*
X128550889Y-69385850D01*
X128586702Y-69259188D01*
X128650160Y-69123025D01*
X128745935Y-68975177D01*
X129484403Y-67973660D01*
X129718144Y-68148538D01*
G37*
G36*
X131112699Y-68021918D02*
G01*
X131226388Y-68054493D01*
X131328460Y-68107844D01*
X131420883Y-68183098D01*
X131497102Y-68274009D01*
X131551065Y-68374691D01*
X131584005Y-68487147D01*
X131595394Y-68614187D01*
X131581010Y-68744589D01*
X131539053Y-68860075D01*
X131468941Y-68964170D01*
X131367027Y-69058953D01*
X131446054Y-69111284D01*
X131512728Y-69177247D01*
X131568039Y-69258255D01*
X131608909Y-69348255D01*
X131633767Y-69446068D01*
X131642289Y-69553422D01*
X131630190Y-69690497D01*
X131595353Y-69810711D01*
X131538568Y-69917239D01*
X131458740Y-70012355D01*
X131361786Y-70089830D01*
X131252860Y-70145251D01*
X131129633Y-70179385D01*
X130988939Y-70191263D01*
X130844700Y-70179286D01*
X130717975Y-70144837D01*
X130605631Y-70088900D01*
X130505339Y-70010767D01*
X130421227Y-69914385D01*
X130362011Y-69808148D01*
X130326020Y-69689968D01*
X130313608Y-69556842D01*
X130314569Y-69546217D01*
X130628071Y-69546217D01*
X130639449Y-69639784D01*
X130672836Y-69722807D01*
X130729309Y-69798032D01*
X130802917Y-69856098D01*
X130884823Y-69890378D01*
X130977948Y-69902079D01*
X131070364Y-69890550D01*
X131151888Y-69856750D01*
X131225366Y-69799497D01*
X131282599Y-69724968D01*
X131316341Y-69642807D01*
X131327826Y-69550247D01*
X131316276Y-69456931D01*
X131282479Y-69374936D01*
X131225366Y-69301364D01*
X131151879Y-69244037D01*
X131070355Y-69210200D01*
X130977948Y-69198660D01*
X130886457Y-69210121D01*
X130804932Y-69243863D01*
X130730653Y-69301242D01*
X130673245Y-69374817D01*
X130639521Y-69455569D01*
X130628071Y-69546217D01*
X130314569Y-69546217D01*
X130326250Y-69417073D01*
X130361802Y-69301422D01*
X130418508Y-69205131D01*
X130497127Y-69124916D01*
X130600837Y-69059319D01*
X130515644Y-68987406D01*
X130451393Y-68908041D01*
X130405804Y-68820300D01*
X130377949Y-68722481D01*
X130368318Y-68612233D01*
X130665318Y-68612233D01*
X130675799Y-68698958D01*
X130706215Y-68773847D01*
X130757153Y-68839745D01*
X130823961Y-68891762D01*
X130898005Y-68922458D01*
X130981856Y-68932923D01*
X131064820Y-68922494D01*
X131138435Y-68891834D01*
X131205216Y-68839745D01*
X131257313Y-68772966D01*
X131287969Y-68699390D01*
X131298395Y-68616507D01*
X131287963Y-68533463D01*
X131257299Y-68459808D01*
X131205216Y-68393025D01*
X131138435Y-68340935D01*
X131064820Y-68310275D01*
X130981856Y-68299846D01*
X130898969Y-68310269D01*
X130825351Y-68340924D01*
X130758496Y-68393025D01*
X130706177Y-68459724D01*
X130675632Y-68532009D01*
X130665318Y-68612233D01*
X130368318Y-68612233D01*
X130379719Y-68486917D01*
X130412796Y-68375272D01*
X130467187Y-68274596D01*
X130544295Y-68182976D01*
X130637999Y-68107764D01*
X130741210Y-68054440D01*
X130855873Y-68021897D01*
X130984665Y-68010662D01*
X131112699Y-68021918D01*
G37*
G36*
X133703874Y-68031411D02*
G01*
X133832926Y-68069425D01*
X133953109Y-68132763D01*
X134066277Y-68223520D01*
X134161622Y-68332410D01*
X134227518Y-68447491D01*
X134266794Y-68570603D01*
X134280112Y-68704434D01*
X134268732Y-68821698D01*
X134232950Y-68947727D01*
X134169135Y-69084997D01*
X134072261Y-69235907D01*
X133335258Y-70236081D01*
X133101396Y-70062547D01*
X133604170Y-69375369D01*
X133534194Y-69383551D01*
X133487666Y-69386238D01*
X133363976Y-69374041D01*
X133250318Y-69338097D01*
X133144226Y-69277866D01*
X133043999Y-69190844D01*
X132962033Y-69088206D01*
X132904414Y-68977468D01*
X132869572Y-68856783D01*
X132857641Y-68723607D01*
X132859767Y-68700771D01*
X133172104Y-68700771D01*
X133185274Y-68809819D01*
X133223525Y-68904220D01*
X133287631Y-68987512D01*
X133371449Y-69053079D01*
X133464128Y-69091714D01*
X133568877Y-69104870D01*
X133673750Y-69091810D01*
X133766005Y-69053564D01*
X133848901Y-68988855D01*
X133914073Y-68904761D01*
X133952537Y-68811636D01*
X133965649Y-68706266D01*
X133952537Y-68600896D01*
X133914073Y-68507771D01*
X133848901Y-68423677D01*
X133765977Y-68359040D01*
X133673296Y-68320759D01*
X133567533Y-68307662D01*
X133463628Y-68320683D01*
X133371840Y-68358889D01*
X133288974Y-68423677D01*
X133223429Y-68507670D01*
X133185077Y-68599037D01*
X133172104Y-68700771D01*
X132859767Y-68700771D01*
X132870813Y-68582129D01*
X132909341Y-68453807D01*
X132973269Y-68335829D01*
X133064637Y-68226207D01*
X133175263Y-68134393D01*
X133293827Y-68070246D01*
X133422280Y-68031651D01*
X133563381Y-68018478D01*
X133703874Y-68031411D01*
G37*
G36*
X135565684Y-69573817D02*
G01*
X135794417Y-69573817D01*
X135794417Y-69863000D01*
X135565684Y-69863000D01*
X135565684Y-70163907D01*
X135251221Y-70163907D01*
X135251221Y-69863000D01*
X134214899Y-69863000D01*
X134413487Y-69573817D01*
X134764445Y-69573817D01*
X135251221Y-69573817D01*
X135251221Y-68867344D01*
X134764445Y-69573817D01*
X134413487Y-69573817D01*
X135565684Y-67895990D01*
X135565684Y-69573817D01*
G37*
G36*
X136638521Y-69177655D02*
G01*
X136638521Y-68901660D01*
X136774542Y-68894956D01*
X136859660Y-68878550D01*
X136909264Y-68856842D01*
X136962668Y-68812417D01*
X137000783Y-68757191D01*
X137024665Y-68688966D01*
X137033217Y-68604173D01*
X137022787Y-68518445D01*
X136992867Y-68446620D01*
X136943214Y-68385453D01*
X136879590Y-68338613D01*
X136803912Y-68309935D01*
X136712771Y-68299846D01*
X136626797Y-68307822D01*
X136560072Y-68329671D01*
X136508339Y-68363715D01*
X136469236Y-68411750D01*
X136434222Y-68482792D01*
X136404658Y-68583778D01*
X136087509Y-68583778D01*
X136121787Y-68434926D01*
X136167939Y-68316016D01*
X136224295Y-68222024D01*
X136290230Y-68148904D01*
X136370272Y-68090888D01*
X136466183Y-68047862D01*
X136581105Y-68020454D01*
X136718999Y-68010662D01*
X136856247Y-68021666D01*
X136975599Y-68053142D01*
X137080169Y-68103907D01*
X137172313Y-68174305D01*
X137248840Y-68261062D01*
X137303027Y-68358217D01*
X137336177Y-68467874D01*
X137347680Y-68593060D01*
X137337898Y-68705952D01*
X137309718Y-68805230D01*
X137263795Y-68893427D01*
X137199316Y-68972378D01*
X137114061Y-69043077D01*
X137208287Y-69112209D01*
X137280408Y-69194730D01*
X137332701Y-69292246D01*
X137365492Y-69407750D01*
X137377111Y-69545362D01*
X137364532Y-69684442D01*
X137328297Y-69806307D01*
X137269137Y-69914264D01*
X137185747Y-70010645D01*
X137085089Y-70088604D01*
X136971593Y-70144602D01*
X136842801Y-70179201D01*
X136695429Y-70191263D01*
X136544290Y-70178967D01*
X136415646Y-70144099D01*
X136305470Y-70088322D01*
X136210756Y-70011403D01*
X136129763Y-69911238D01*
X136087639Y-69829554D01*
X136054605Y-69723129D01*
X136032798Y-69586273D01*
X136340422Y-69586273D01*
X136365860Y-69683896D01*
X136405790Y-69760744D01*
X136459613Y-69820746D01*
X136526972Y-69864857D01*
X136608187Y-69892324D01*
X136706909Y-69902079D01*
X136805355Y-69890285D01*
X136889213Y-69856265D01*
X136961898Y-69799619D01*
X137017342Y-69724129D01*
X137050942Y-69636441D01*
X137062648Y-69533028D01*
X137052120Y-69428939D01*
X137022912Y-69346537D01*
X136976569Y-69281046D01*
X136911828Y-69229556D01*
X136850248Y-69203133D01*
X136761894Y-69184729D01*
X136638521Y-69177655D01*
G37*
G36*
X138621554Y-68021288D02*
G01*
X138728441Y-68052668D01*
X138829162Y-68105210D01*
X138925183Y-68180813D01*
X139017324Y-68282749D01*
X139098056Y-68404391D01*
X139162906Y-68544217D01*
X139211359Y-68704861D01*
X139242066Y-68889487D01*
X139252896Y-69101695D01*
X139242079Y-69313226D01*
X139211395Y-69497399D01*
X139162959Y-69657781D01*
X139098102Y-69797504D01*
X139017324Y-69919176D01*
X138925152Y-70021201D01*
X138829253Y-70096816D01*
X138728815Y-70149324D01*
X138622382Y-70180659D01*
X138507955Y-70191263D01*
X138393455Y-70180682D01*
X138286669Y-70149381D01*
X138185630Y-70096886D01*
X138088899Y-70021250D01*
X137995656Y-69919176D01*
X137915305Y-69797783D01*
X137850517Y-69657107D01*
X137801924Y-69494281D01*
X137771017Y-69305882D01*
X137760182Y-69089972D01*
X138074546Y-69089972D01*
X138083075Y-69267875D01*
X138107227Y-69422547D01*
X138145242Y-69556949D01*
X138195935Y-69673712D01*
X138266792Y-69780825D01*
X138341072Y-69849955D01*
X138419759Y-69889097D01*
X138505757Y-69902079D01*
X138591088Y-69889157D01*
X138669590Y-69850101D01*
X138744130Y-69780975D01*
X138815701Y-69673712D01*
X138866960Y-69559535D01*
X138905385Y-69427835D01*
X138929804Y-69275944D01*
X138938433Y-69100840D01*
X138929824Y-68925937D01*
X138905435Y-68773861D01*
X138867012Y-68641665D01*
X138815701Y-68526748D01*
X138744214Y-68420272D01*
X138669706Y-68351570D01*
X138591172Y-68312712D01*
X138505757Y-68299846D01*
X138421098Y-68312668D01*
X138343048Y-68351449D01*
X138268775Y-68420134D01*
X138197279Y-68526748D01*
X138145831Y-68640407D01*
X138107423Y-68770475D01*
X138083110Y-68919402D01*
X138074546Y-69089972D01*
X137760182Y-69089972D01*
X137760084Y-69088018D01*
X137770797Y-68882117D01*
X137801277Y-68701721D01*
X137849571Y-68543534D01*
X137914490Y-68404673D01*
X137995656Y-68282749D01*
X138087797Y-68180813D01*
X138183818Y-68105210D01*
X138284539Y-68052668D01*
X138391426Y-68021288D01*
X138506490Y-68010662D01*
X138621554Y-68021288D01*
G37*
D13*
%TO.C,REF\u002A\u002A*%
X113030000Y-53975000D02*
X112260000Y-53975000D01*
X114300000Y-46355000D02*
X111760000Y-48895000D01*
X114300000Y-53975000D02*
X113030000Y-53975000D01*
X115570000Y-47625000D02*
X111760000Y-51435000D01*
X115570000Y-55245000D02*
X114300000Y-53975000D01*
X115570000Y-55245000D02*
X128270000Y-55245000D01*
X116840000Y-50165000D02*
X120650000Y-50165000D01*
X116840000Y-51435000D02*
X115570000Y-52705000D01*
X119380000Y-51435000D02*
X116840000Y-51435000D01*
X120650000Y-52705000D02*
X119380000Y-51435000D01*
X123190000Y-47625000D02*
X115570000Y-47625000D01*
X123190000Y-52705000D02*
X120650000Y-50165000D01*
X124460000Y-46355000D02*
X114300000Y-46355000D01*
X124460000Y-53975000D02*
X123190000Y-52705000D01*
X125730000Y-47625000D02*
X124460000Y-46355000D01*
X125730000Y-50165000D02*
X123190000Y-47625000D01*
X125730000Y-53975000D02*
X124460000Y-53975000D01*
X127000000Y-48895000D02*
X125730000Y-47625000D01*
X127000000Y-51435000D02*
X125730000Y-50165000D01*
X128270000Y-50165000D02*
X127000000Y-48895000D01*
X130310000Y-53975000D02*
X125730000Y-53975000D01*
X131580000Y-56515000D02*
X112260000Y-56515000D01*
X132080000Y-50165000D02*
X128270000Y-50165000D01*
X133350000Y-51435000D02*
X127000000Y-51435000D01*
X134620000Y-47625000D02*
X132080000Y-50165000D01*
X134620000Y-52705000D02*
X133350000Y-51435000D01*
X134620000Y-55245000D02*
X134620000Y-52705000D01*
X112260000Y-53975000D02*
G75*
G02*
X111260000Y-53975000I-500000J0D01*
G01*
X111260000Y-53975000D02*
G75*
G02*
X112260000Y-53975000I500000J0D01*
G01*
X112260000Y-56515000D02*
G75*
G02*
X111260000Y-56515000I-500000J0D01*
G01*
X111260000Y-56515000D02*
G75*
G02*
X112260000Y-56515000I500000J0D01*
G01*
X116705000Y-50165000D02*
G75*
G02*
X115705000Y-50165000I-500000J0D01*
G01*
X115705000Y-50165000D02*
G75*
G02*
X116705000Y-50165000I500000J0D01*
G01*
X131310000Y-53975000D02*
G75*
G02*
X130310000Y-53975000I-500000J0D01*
G01*
X130310000Y-53975000D02*
G75*
G02*
X131310000Y-53975000I500000J0D01*
G01*
X132580000Y-56515000D02*
G75*
G02*
X131580000Y-56515000I-500000J0D01*
G01*
X131580000Y-56515000D02*
G75*
G02*
X132580000Y-56515000I500000J0D01*
G01*
%TD*%
D14*
%TO.C,TP2*%
X111506000Y-88900000D03*
%TD*%
%TO.C,TP4*%
X111531400Y-91008200D03*
%TD*%
D15*
%TO.C,D1*%
X124993400Y-94206200D03*
X124993400Y-95176200D03*
%TD*%
D16*
%TO.C,D4*%
X125018800Y-81818200D03*
X125018800Y-80848200D03*
%TD*%
D14*
%TO.C,TP5*%
X111531400Y-84683600D03*
%TD*%
D17*
%TO.C,R5*%
X119862600Y-81862200D03*
X119862600Y-80842200D03*
%TD*%
D18*
%TO.C,C1*%
X172770800Y-94917200D03*
X172770800Y-93957200D03*
%TD*%
D19*
%TO.C,R3*%
X122453400Y-94181200D03*
X122453400Y-95201200D03*
%TD*%
%TO.C,R4*%
X119913400Y-94181200D03*
X119913400Y-95201200D03*
%TD*%
D20*
%TO.C,R2*%
X169642600Y-93218000D03*
X170662600Y-93218000D03*
%TD*%
D15*
%TO.C,D2*%
X117348000Y-94206200D03*
X117348000Y-95176200D03*
%TD*%
D14*
%TO.C,TP1*%
X111531400Y-86842601D03*
%TD*%
D17*
%TO.C,R6*%
X122301000Y-81838800D03*
X122301000Y-80818800D03*
%TD*%
D16*
%TO.C,D3*%
X117322601Y-81848701D03*
X117322601Y-80878701D03*
%TD*%
D14*
%TO.C,TP3*%
X174523400Y-94665800D03*
%TD*%
%TO.C,REF\u002A\u002A*%
X111760000Y-48895000D03*
X111760000Y-48895000D03*
X111760000Y-51435000D03*
X111760000Y-51435000D03*
X115570000Y-52705000D03*
X115570000Y-52705000D03*
X120650000Y-52705000D03*
X120650000Y-52705000D03*
X128270000Y-55245000D03*
X128270000Y-55245000D03*
X134620000Y-47625000D03*
X134620000Y-47625000D03*
X134620000Y-55245000D03*
X134620000Y-55245000D03*
%TD*%
D21*
%TO.C,U1*%
X177384800Y-93413355D03*
D22*
X176834800Y-93413355D03*
X176334800Y-93413355D03*
D23*
X176234800Y-94013355D03*
D22*
X176334800Y-94613355D03*
X176834800Y-94613355D03*
X177334800Y-94613355D03*
D23*
X177434800Y-94013355D03*
%TD*%
D24*
%TO.C,R1*%
X170664600Y-94996000D03*
X169644600Y-94996000D03*
%TD*%
M02*
