%TF.GenerationSoftware,KiCad,Pcbnew,9.0.4*%
%TF.CreationDate,2025-09-26T16:15:54-04:00*%
%TF.ProjectId,Shawn_PCB_Business_card,53686177-6e5f-4504-9342-5f427573696e,rev?*%
%TF.SameCoordinates,Original*%
%TF.FileFunction,Copper,L1,Top*%
%TF.FilePolarity,Positive*%
%FSLAX46Y46*%
G04 Gerber Fmt 4.6, Leading zero omitted, Abs format (unit mm)*
G04 Created by KiCad (PCBNEW 9.0.4) date 2025-09-26 16:15:54*
%MOMM*%
%LPD*%
G01*
G04 APERTURE LIST*
G04 Aperture macros list*
%AMRoundRect*
0 Rectangle with rounded corners*
0 $1 Rounding radius*
0 $2 $3 $4 $5 $6 $7 $8 $9 X,Y pos of 4 corners*
0 Add a 4 corners polygon primitive as box body*
4,1,4,$2,$3,$4,$5,$6,$7,$8,$9,$2,$3,0*
0 Add four circle primitives for the rounded corners*
1,1,$1+$1,$2,$3*
1,1,$1+$1,$4,$5*
1,1,$1+$1,$6,$7*
1,1,$1+$1,$8,$9*
0 Add four rect primitives between the rounded corners*
20,1,$1+$1,$2,$3,$4,$5,0*
20,1,$1+$1,$4,$5,$6,$7,0*
20,1,$1+$1,$6,$7,$8,$9,0*
20,1,$1+$1,$8,$9,$2,$3,0*%
G04 Aperture macros list end*
%ADD10C,0.250000*%
%ADD11C,0.500000*%
%ADD12C,0.300000*%
%TA.AperFunction,EtchedComponent*%
%ADD13C,0.200000*%
%TD*%
%TA.AperFunction,SMDPad,CuDef*%
%ADD14C,1.000000*%
%TD*%
%TA.AperFunction,SMDPad,CuDef*%
%ADD15RoundRect,0.147500X-0.172500X0.147500X-0.172500X-0.147500X0.172500X-0.147500X0.172500X0.147500X0*%
%TD*%
%TA.AperFunction,SMDPad,CuDef*%
%ADD16RoundRect,0.147500X0.172500X-0.147500X0.172500X0.147500X-0.172500X0.147500X-0.172500X-0.147500X0*%
%TD*%
%TA.AperFunction,SMDPad,CuDef*%
%ADD17RoundRect,0.135000X0.185000X-0.135000X0.185000X0.135000X-0.185000X0.135000X-0.185000X-0.135000X0*%
%TD*%
%TA.AperFunction,SMDPad,CuDef*%
%ADD18RoundRect,0.140000X0.170000X-0.140000X0.170000X0.140000X-0.170000X0.140000X-0.170000X-0.140000X0*%
%TD*%
%TA.AperFunction,SMDPad,CuDef*%
%ADD19RoundRect,0.135000X-0.185000X0.135000X-0.185000X-0.135000X0.185000X-0.135000X0.185000X0.135000X0*%
%TD*%
%TA.AperFunction,SMDPad,CuDef*%
%ADD20RoundRect,0.135000X-0.135000X-0.185000X0.135000X-0.185000X0.135000X0.185000X-0.135000X0.185000X0*%
%TD*%
%TA.AperFunction,SMDPad,CuDef*%
%ADD21R,0.370000X0.450000*%
%TD*%
%TA.AperFunction,SMDPad,CuDef*%
%ADD22R,0.270000X0.450000*%
%TD*%
%TA.AperFunction,SMDPad,CuDef*%
%ADD23R,0.450000X0.270000*%
%TD*%
%TA.AperFunction,SMDPad,CuDef*%
%ADD24RoundRect,0.135000X0.135000X0.185000X-0.135000X0.185000X-0.135000X-0.185000X0.135000X-0.185000X0*%
%TD*%
%TA.AperFunction,ViaPad*%
%ADD25C,1.209040*%
%TD*%
%TA.AperFunction,Conductor*%
%ADD26C,0.254000*%
%TD*%
%TA.AperFunction,Conductor*%
%ADD27C,0.299720*%
%TD*%
G04 APERTURE END LIST*
D10*
G36*
X121330478Y-69863000D02*
G01*
X122114864Y-69863000D01*
X122114864Y-70160000D01*
X120698866Y-70160000D01*
X121431717Y-69271688D01*
X121612823Y-69041734D01*
X121724198Y-68878824D01*
X121769919Y-68790428D01*
X121794629Y-68714167D01*
X121802233Y-68647526D01*
X121790446Y-68553427D01*
X121756127Y-68471918D01*
X121698308Y-68399863D01*
X121623939Y-68344511D01*
X121539297Y-68311311D01*
X121441242Y-68299846D01*
X121341218Y-68310621D01*
X121260533Y-68340840D01*
X121194861Y-68389546D01*
X121141771Y-68458759D01*
X121101080Y-68553176D01*
X121074878Y-68679644D01*
X120757607Y-68679644D01*
X120788450Y-68508944D01*
X120835541Y-68370864D01*
X120896753Y-68259953D01*
X120971290Y-68171844D01*
X121059750Y-68103499D01*
X121164080Y-68053439D01*
X121287404Y-68021868D01*
X121433793Y-68010662D01*
X121575671Y-68022683D01*
X121702093Y-68057482D01*
X121815909Y-68114405D01*
X121919225Y-68194455D01*
X122006310Y-68292741D01*
X122067243Y-68399881D01*
X122104058Y-68517866D01*
X122116696Y-68649602D01*
X122106729Y-68762551D01*
X122076492Y-68874927D01*
X122024616Y-68988244D01*
X121970654Y-69077228D01*
X121887840Y-69193286D01*
X121660328Y-69473555D01*
X121330478Y-69863000D01*
G37*
G36*
X123715021Y-69573817D02*
G01*
X123943754Y-69573817D01*
X123943754Y-69863000D01*
X123715021Y-69863000D01*
X123715021Y-70163907D01*
X123400558Y-70163907D01*
X123400558Y-69863000D01*
X122364236Y-69863000D01*
X122562824Y-69573817D01*
X122913782Y-69573817D01*
X123400558Y-69573817D01*
X123400558Y-68867344D01*
X122913782Y-69573817D01*
X122562824Y-69573817D01*
X123715021Y-67895990D01*
X123715021Y-69573817D01*
G37*
G36*
X125043606Y-68021288D02*
G01*
X125150493Y-68052668D01*
X125251214Y-68105210D01*
X125347235Y-68180813D01*
X125439376Y-68282749D01*
X125520108Y-68404391D01*
X125584957Y-68544217D01*
X125633410Y-68704861D01*
X125664118Y-68889487D01*
X125674948Y-69101695D01*
X125664130Y-69313226D01*
X125633447Y-69497399D01*
X125585011Y-69657781D01*
X125520154Y-69797504D01*
X125439376Y-69919176D01*
X125347203Y-70021201D01*
X125251305Y-70096816D01*
X125150867Y-70149324D01*
X125044433Y-70180659D01*
X124930007Y-70191263D01*
X124815507Y-70180682D01*
X124708720Y-70149381D01*
X124607682Y-70096886D01*
X124510951Y-70021250D01*
X124417708Y-69919176D01*
X124337357Y-69797783D01*
X124272569Y-69657107D01*
X124223976Y-69494281D01*
X124193069Y-69305882D01*
X124182233Y-69089972D01*
X124496598Y-69089972D01*
X124505127Y-69267875D01*
X124529278Y-69422547D01*
X124567293Y-69556949D01*
X124617987Y-69673712D01*
X124688843Y-69780825D01*
X124763124Y-69849955D01*
X124841811Y-69889097D01*
X124927809Y-69902079D01*
X125013140Y-69889157D01*
X125091642Y-69850101D01*
X125166181Y-69780975D01*
X125237753Y-69673712D01*
X125289011Y-69559535D01*
X125327437Y-69427835D01*
X125351856Y-69275944D01*
X125360485Y-69100840D01*
X125351876Y-68925937D01*
X125327487Y-68773861D01*
X125289063Y-68641665D01*
X125237753Y-68526748D01*
X125166265Y-68420272D01*
X125091757Y-68351570D01*
X125013224Y-68312712D01*
X124927809Y-68299846D01*
X124843149Y-68312668D01*
X124765100Y-68351449D01*
X124690826Y-68420134D01*
X124619330Y-68526748D01*
X124567883Y-68640407D01*
X124529475Y-68770475D01*
X124505162Y-68919402D01*
X124496598Y-69089972D01*
X124182233Y-69089972D01*
X124182135Y-69088018D01*
X124192848Y-68882117D01*
X124223328Y-68701721D01*
X124271622Y-68543534D01*
X124336541Y-68404673D01*
X124417708Y-68282749D01*
X124509848Y-68180813D01*
X124605869Y-68105210D01*
X124706590Y-68052668D01*
X124813478Y-68021288D01*
X124928542Y-68010662D01*
X125043606Y-68021288D01*
G37*
G36*
X127356438Y-69863000D02*
G01*
X128140824Y-69863000D01*
X128140824Y-70160000D01*
X126724826Y-70160000D01*
X127457676Y-69271688D01*
X127638782Y-69041734D01*
X127750157Y-68878824D01*
X127795878Y-68790428D01*
X127820589Y-68714167D01*
X127828193Y-68647526D01*
X127816406Y-68553427D01*
X127782086Y-68471918D01*
X127724267Y-68399863D01*
X127649899Y-68344511D01*
X127565257Y-68311311D01*
X127467202Y-68299846D01*
X127367178Y-68310621D01*
X127286492Y-68340840D01*
X127220821Y-68389546D01*
X127167730Y-68458759D01*
X127127039Y-68553176D01*
X127100837Y-68679644D01*
X126783566Y-68679644D01*
X126814410Y-68508944D01*
X126861500Y-68370864D01*
X126922713Y-68259953D01*
X126997249Y-68171844D01*
X127085709Y-68103499D01*
X127190039Y-68053439D01*
X127313364Y-68021868D01*
X127459752Y-68010662D01*
X127601630Y-68022683D01*
X127728053Y-68057482D01*
X127841868Y-68114405D01*
X127945185Y-68194455D01*
X128032270Y-68292741D01*
X128093203Y-68399881D01*
X128130018Y-68517866D01*
X128142655Y-68649602D01*
X128132689Y-68762551D01*
X128102452Y-68874927D01*
X128050576Y-68988244D01*
X127996613Y-69077228D01*
X127913800Y-69193286D01*
X127686288Y-69473555D01*
X127356438Y-69863000D01*
G37*
G36*
X129718144Y-68148538D02*
G01*
X129215370Y-68834371D01*
X129285223Y-68826189D01*
X129330530Y-68823503D01*
X129454792Y-68835790D01*
X129568844Y-68871985D01*
X129675188Y-68932626D01*
X129775541Y-69020240D01*
X129857501Y-69122876D01*
X129915121Y-69233634D01*
X129949966Y-69354358D01*
X129961898Y-69487599D01*
X129948700Y-69628219D01*
X129910018Y-69756266D01*
X129845693Y-69874502D01*
X129753559Y-69984877D01*
X129643669Y-70076002D01*
X129525586Y-70139743D01*
X129397342Y-70178143D01*
X129256158Y-70191263D01*
X129116321Y-70178468D01*
X128987182Y-70140785D01*
X128866274Y-70077893D01*
X128751797Y-69987686D01*
X128657250Y-69878903D01*
X128591783Y-69763623D01*
X128552698Y-69639990D01*
X128539428Y-69505307D01*
X128539604Y-69503475D01*
X128853891Y-69503475D01*
X128866917Y-69609221D01*
X128905032Y-69702208D01*
X128969417Y-69785697D01*
X129052395Y-69850482D01*
X129145501Y-69888911D01*
X129252128Y-69902079D01*
X129356009Y-69889023D01*
X129447795Y-69850705D01*
X129530687Y-69785697D01*
X129596149Y-69701401D01*
X129634471Y-69609707D01*
X129647436Y-69507627D01*
X129634346Y-69400013D01*
X129596195Y-69306134D01*
X129532031Y-69222595D01*
X129448184Y-69156815D01*
X129355468Y-69118065D01*
X129250663Y-69104870D01*
X129145014Y-69118011D01*
X129052373Y-69156438D01*
X128969417Y-69221374D01*
X128905037Y-69304788D01*
X128866920Y-69397733D01*
X128853891Y-69503475D01*
X128539604Y-69503475D01*
X128550889Y-69385850D01*
X128586702Y-69259188D01*
X128650160Y-69123025D01*
X128745935Y-68975177D01*
X129484403Y-67973660D01*
X129718144Y-68148538D01*
G37*
G36*
X131112699Y-68021918D02*
G01*
X131226388Y-68054493D01*
X131328460Y-68107844D01*
X131420883Y-68183098D01*
X131497102Y-68274009D01*
X131551065Y-68374691D01*
X131584005Y-68487147D01*
X131595394Y-68614187D01*
X131581010Y-68744589D01*
X131539053Y-68860075D01*
X131468941Y-68964170D01*
X131367027Y-69058953D01*
X131446054Y-69111284D01*
X131512728Y-69177247D01*
X131568039Y-69258255D01*
X131608909Y-69348255D01*
X131633767Y-69446068D01*
X131642289Y-69553422D01*
X131630190Y-69690497D01*
X131595353Y-69810711D01*
X131538568Y-69917239D01*
X131458740Y-70012355D01*
X131361786Y-70089830D01*
X131252860Y-70145251D01*
X131129633Y-70179385D01*
X130988939Y-70191263D01*
X130844700Y-70179286D01*
X130717975Y-70144837D01*
X130605631Y-70088900D01*
X130505339Y-70010767D01*
X130421227Y-69914385D01*
X130362011Y-69808148D01*
X130326020Y-69689968D01*
X130313608Y-69556842D01*
X130314569Y-69546217D01*
X130628071Y-69546217D01*
X130639449Y-69639784D01*
X130672836Y-69722807D01*
X130729309Y-69798032D01*
X130802917Y-69856098D01*
X130884823Y-69890378D01*
X130977948Y-69902079D01*
X131070364Y-69890550D01*
X131151888Y-69856750D01*
X131225366Y-69799497D01*
X131282599Y-69724968D01*
X131316341Y-69642807D01*
X131327826Y-69550247D01*
X131316276Y-69456931D01*
X131282479Y-69374936D01*
X131225366Y-69301364D01*
X131151879Y-69244037D01*
X131070355Y-69210200D01*
X130977948Y-69198660D01*
X130886457Y-69210121D01*
X130804932Y-69243863D01*
X130730653Y-69301242D01*
X130673245Y-69374817D01*
X130639521Y-69455569D01*
X130628071Y-69546217D01*
X130314569Y-69546217D01*
X130326250Y-69417073D01*
X130361802Y-69301422D01*
X130418508Y-69205131D01*
X130497127Y-69124916D01*
X130600837Y-69059319D01*
X130515644Y-68987406D01*
X130451393Y-68908041D01*
X130405804Y-68820300D01*
X130377949Y-68722481D01*
X130368318Y-68612233D01*
X130665318Y-68612233D01*
X130675799Y-68698958D01*
X130706215Y-68773847D01*
X130757153Y-68839745D01*
X130823961Y-68891762D01*
X130898005Y-68922458D01*
X130981856Y-68932923D01*
X131064820Y-68922494D01*
X131138435Y-68891834D01*
X131205216Y-68839745D01*
X131257313Y-68772966D01*
X131287969Y-68699390D01*
X131298395Y-68616507D01*
X131287963Y-68533463D01*
X131257299Y-68459808D01*
X131205216Y-68393025D01*
X131138435Y-68340935D01*
X131064820Y-68310275D01*
X130981856Y-68299846D01*
X130898969Y-68310269D01*
X130825351Y-68340924D01*
X130758496Y-68393025D01*
X130706177Y-68459724D01*
X130675632Y-68532009D01*
X130665318Y-68612233D01*
X130368318Y-68612233D01*
X130379719Y-68486917D01*
X130412796Y-68375272D01*
X130467187Y-68274596D01*
X130544295Y-68182976D01*
X130637999Y-68107764D01*
X130741210Y-68054440D01*
X130855873Y-68021897D01*
X130984665Y-68010662D01*
X131112699Y-68021918D01*
G37*
G36*
X133703874Y-68031411D02*
G01*
X133832926Y-68069425D01*
X133953109Y-68132763D01*
X134066277Y-68223520D01*
X134161622Y-68332410D01*
X134227518Y-68447491D01*
X134266794Y-68570603D01*
X134280112Y-68704434D01*
X134268732Y-68821698D01*
X134232950Y-68947727D01*
X134169135Y-69084997D01*
X134072261Y-69235907D01*
X133335258Y-70236081D01*
X133101396Y-70062547D01*
X133604170Y-69375369D01*
X133534194Y-69383551D01*
X133487666Y-69386238D01*
X133363976Y-69374041D01*
X133250318Y-69338097D01*
X133144226Y-69277866D01*
X133043999Y-69190844D01*
X132962033Y-69088206D01*
X132904414Y-68977468D01*
X132869572Y-68856783D01*
X132857641Y-68723607D01*
X132859767Y-68700771D01*
X133172104Y-68700771D01*
X133185274Y-68809819D01*
X133223525Y-68904220D01*
X133287631Y-68987512D01*
X133371449Y-69053079D01*
X133464128Y-69091714D01*
X133568877Y-69104870D01*
X133673750Y-69091810D01*
X133766005Y-69053564D01*
X133848901Y-68988855D01*
X133914073Y-68904761D01*
X133952537Y-68811636D01*
X133965649Y-68706266D01*
X133952537Y-68600896D01*
X133914073Y-68507771D01*
X133848901Y-68423677D01*
X133765977Y-68359040D01*
X133673296Y-68320759D01*
X133567533Y-68307662D01*
X133463628Y-68320683D01*
X133371840Y-68358889D01*
X133288974Y-68423677D01*
X133223429Y-68507670D01*
X133185077Y-68599037D01*
X133172104Y-68700771D01*
X132859767Y-68700771D01*
X132870813Y-68582129D01*
X132909341Y-68453807D01*
X132973269Y-68335829D01*
X133064637Y-68226207D01*
X133175263Y-68134393D01*
X133293827Y-68070246D01*
X133422280Y-68031651D01*
X133563381Y-68018478D01*
X133703874Y-68031411D01*
G37*
G36*
X135565684Y-69573817D02*
G01*
X135794417Y-69573817D01*
X135794417Y-69863000D01*
X135565684Y-69863000D01*
X135565684Y-70163907D01*
X135251221Y-70163907D01*
X135251221Y-69863000D01*
X134214899Y-69863000D01*
X134413487Y-69573817D01*
X134764445Y-69573817D01*
X135251221Y-69573817D01*
X135251221Y-68867344D01*
X134764445Y-69573817D01*
X134413487Y-69573817D01*
X135565684Y-67895990D01*
X135565684Y-69573817D01*
G37*
G36*
X136638521Y-69177655D02*
G01*
X136638521Y-68901660D01*
X136774542Y-68894956D01*
X136859660Y-68878550D01*
X136909264Y-68856842D01*
X136962668Y-68812417D01*
X137000783Y-68757191D01*
X137024665Y-68688966D01*
X137033217Y-68604173D01*
X137022787Y-68518445D01*
X136992867Y-68446620D01*
X136943214Y-68385453D01*
X136879590Y-68338613D01*
X136803912Y-68309935D01*
X136712771Y-68299846D01*
X136626797Y-68307822D01*
X136560072Y-68329671D01*
X136508339Y-68363715D01*
X136469236Y-68411750D01*
X136434222Y-68482792D01*
X136404658Y-68583778D01*
X136087509Y-68583778D01*
X136121787Y-68434926D01*
X136167939Y-68316016D01*
X136224295Y-68222024D01*
X136290230Y-68148904D01*
X136370272Y-68090888D01*
X136466183Y-68047862D01*
X136581105Y-68020454D01*
X136718999Y-68010662D01*
X136856247Y-68021666D01*
X136975599Y-68053142D01*
X137080169Y-68103907D01*
X137172313Y-68174305D01*
X137248840Y-68261062D01*
X137303027Y-68358217D01*
X137336177Y-68467874D01*
X137347680Y-68593060D01*
X137337898Y-68705952D01*
X137309718Y-68805230D01*
X137263795Y-68893427D01*
X137199316Y-68972378D01*
X137114061Y-69043077D01*
X137208287Y-69112209D01*
X137280408Y-69194730D01*
X137332701Y-69292246D01*
X137365492Y-69407750D01*
X137377111Y-69545362D01*
X137364532Y-69684442D01*
X137328297Y-69806307D01*
X137269137Y-69914264D01*
X137185747Y-70010645D01*
X137085089Y-70088604D01*
X136971593Y-70144602D01*
X136842801Y-70179201D01*
X136695429Y-70191263D01*
X136544290Y-70178967D01*
X136415646Y-70144099D01*
X136305470Y-70088322D01*
X136210756Y-70011403D01*
X136129763Y-69911238D01*
X136087639Y-69829554D01*
X136054605Y-69723129D01*
X136032798Y-69586273D01*
X136340422Y-69586273D01*
X136365860Y-69683896D01*
X136405790Y-69760744D01*
X136459613Y-69820746D01*
X136526972Y-69864857D01*
X136608187Y-69892324D01*
X136706909Y-69902079D01*
X136805355Y-69890285D01*
X136889213Y-69856265D01*
X136961898Y-69799619D01*
X137017342Y-69724129D01*
X137050942Y-69636441D01*
X137062648Y-69533028D01*
X137052120Y-69428939D01*
X137022912Y-69346537D01*
X136976569Y-69281046D01*
X136911828Y-69229556D01*
X136850248Y-69203133D01*
X136761894Y-69184729D01*
X136638521Y-69177655D01*
G37*
G36*
X138621554Y-68021288D02*
G01*
X138728441Y-68052668D01*
X138829162Y-68105210D01*
X138925183Y-68180813D01*
X139017324Y-68282749D01*
X139098056Y-68404391D01*
X139162906Y-68544217D01*
X139211359Y-68704861D01*
X139242066Y-68889487D01*
X139252896Y-69101695D01*
X139242079Y-69313226D01*
X139211395Y-69497399D01*
X139162959Y-69657781D01*
X139098102Y-69797504D01*
X139017324Y-69919176D01*
X138925152Y-70021201D01*
X138829253Y-70096816D01*
X138728815Y-70149324D01*
X138622382Y-70180659D01*
X138507955Y-70191263D01*
X138393455Y-70180682D01*
X138286669Y-70149381D01*
X138185630Y-70096886D01*
X138088899Y-70021250D01*
X137995656Y-69919176D01*
X137915305Y-69797783D01*
X137850517Y-69657107D01*
X137801924Y-69494281D01*
X137771017Y-69305882D01*
X137760182Y-69089972D01*
X138074546Y-69089972D01*
X138083075Y-69267875D01*
X138107227Y-69422547D01*
X138145242Y-69556949D01*
X138195935Y-69673712D01*
X138266792Y-69780825D01*
X138341072Y-69849955D01*
X138419759Y-69889097D01*
X138505757Y-69902079D01*
X138591088Y-69889157D01*
X138669590Y-69850101D01*
X138744130Y-69780975D01*
X138815701Y-69673712D01*
X138866960Y-69559535D01*
X138905385Y-69427835D01*
X138929804Y-69275944D01*
X138938433Y-69100840D01*
X138929824Y-68925937D01*
X138905435Y-68773861D01*
X138867012Y-68641665D01*
X138815701Y-68526748D01*
X138744214Y-68420272D01*
X138669706Y-68351570D01*
X138591172Y-68312712D01*
X138505757Y-68299846D01*
X138421098Y-68312668D01*
X138343048Y-68351449D01*
X138268775Y-68420134D01*
X138197279Y-68526748D01*
X138145831Y-68640407D01*
X138107423Y-68770475D01*
X138083110Y-68919402D01*
X138074546Y-69089972D01*
X137760182Y-69089972D01*
X137760084Y-69088018D01*
X137770797Y-68882117D01*
X137801277Y-68701721D01*
X137849571Y-68543534D01*
X137914490Y-68404673D01*
X137995656Y-68282749D01*
X138087797Y-68180813D01*
X138183818Y-68105210D01*
X138284539Y-68052668D01*
X138391426Y-68021288D01*
X138506490Y-68010662D01*
X138621554Y-68021288D01*
G37*
D11*
G36*
X112467027Y-63783293D02*
G01*
X114110293Y-62099483D01*
X114960747Y-62099483D01*
X113051989Y-64010195D01*
X114971738Y-66320000D01*
X114118597Y-66320000D01*
X112598186Y-64442016D01*
X112467027Y-64573175D01*
X112467027Y-66320000D01*
X111838102Y-66320000D01*
X111838102Y-62099483D01*
X112467027Y-62099483D01*
X112467027Y-63783293D01*
G37*
G36*
X116175611Y-62099483D02*
G01*
X116175611Y-66320000D01*
X115546685Y-66320000D01*
X115546685Y-62099483D01*
X116175611Y-62099483D01*
G37*
G36*
X119524913Y-62693482D02*
G01*
X117824738Y-62693482D01*
X117824738Y-63709532D01*
X119478018Y-63709532D01*
X119478018Y-64303531D01*
X117824738Y-64303531D01*
X117824738Y-65726001D01*
X119524913Y-65726001D01*
X119524913Y-66320000D01*
X117195813Y-66320000D01*
X117195813Y-62099483D01*
X119524913Y-62099483D01*
X119524913Y-62693482D01*
G37*
G36*
X121536140Y-62139562D02*
G01*
X121868387Y-62205371D01*
X122121870Y-62303600D01*
X122312456Y-62428967D01*
X122491367Y-62617485D01*
X122617582Y-62830343D01*
X122694741Y-63072464D01*
X122721563Y-63351228D01*
X122691955Y-63640304D01*
X122606166Y-63894237D01*
X122464375Y-64120593D01*
X122275493Y-64308909D01*
X122051718Y-64445364D01*
X121786357Y-64532386D01*
X123093545Y-66327815D01*
X122308793Y-66327815D01*
X121104431Y-64600530D01*
X120990126Y-64600530D01*
X120990126Y-66327815D01*
X120361200Y-66327815D01*
X120361200Y-64048541D01*
X120990126Y-64048541D01*
X121191382Y-64048541D01*
X121500086Y-64023793D01*
X121725124Y-63958187D01*
X121886446Y-63860290D01*
X121998351Y-63731934D01*
X122067683Y-63567888D01*
X122092638Y-63356845D01*
X122068843Y-63160991D01*
X122002474Y-63007996D01*
X121894677Y-62887497D01*
X121738187Y-62794988D01*
X121518585Y-62732683D01*
X121216050Y-62709113D01*
X120990126Y-62709113D01*
X120990126Y-64048541D01*
X120361200Y-64048541D01*
X120361200Y-62115115D01*
X121106141Y-62115115D01*
X121536140Y-62139562D01*
G37*
G36*
X127355827Y-66312184D02*
G01*
X126658514Y-66312184D01*
X126215457Y-65288318D01*
X124408060Y-65288318D01*
X123937893Y-66312184D01*
X123251570Y-66312184D01*
X124006156Y-64694319D01*
X124673308Y-64694319D01*
X125955827Y-64694319D01*
X125329588Y-63259637D01*
X124673308Y-64694319D01*
X124006156Y-64694319D01*
X125340579Y-61833258D01*
X127355827Y-66312184D01*
G37*
G36*
X127876064Y-66320000D02*
G01*
X127876064Y-61812498D01*
X130955478Y-65032595D01*
X130955478Y-62099483D01*
X131584403Y-62099483D01*
X131584403Y-66576943D01*
X128504989Y-63365150D01*
X128504989Y-66320000D01*
X127876064Y-66320000D01*
G37*
G36*
X134956909Y-63783293D02*
G01*
X136600174Y-62099483D01*
X137450628Y-62099483D01*
X135541870Y-64010195D01*
X137461619Y-66320000D01*
X136608479Y-66320000D01*
X135088067Y-64442016D01*
X134956909Y-64573175D01*
X134956909Y-66320000D01*
X134327983Y-66320000D01*
X134327983Y-62099483D01*
X134956909Y-62099483D01*
X134956909Y-63783293D01*
G37*
G36*
X140365666Y-62693482D02*
G01*
X138665492Y-62693482D01*
X138665492Y-63709532D01*
X140318772Y-63709532D01*
X140318772Y-64303531D01*
X138665492Y-64303531D01*
X138665492Y-65726001D01*
X140365666Y-65726001D01*
X140365666Y-66320000D01*
X138036567Y-66320000D01*
X138036567Y-62099483D01*
X140365666Y-62099483D01*
X140365666Y-62693482D01*
G37*
G36*
X141830879Y-62099483D02*
G01*
X141830879Y-65726001D01*
X143077739Y-65726001D01*
X143077739Y-66320000D01*
X141201954Y-66320000D01*
X141201954Y-62099483D01*
X141830879Y-62099483D01*
G37*
G36*
X144312387Y-62099483D02*
G01*
X144312387Y-65726001D01*
X145559246Y-65726001D01*
X145559246Y-66320000D01*
X143683461Y-66320000D01*
X143683461Y-62099483D01*
X144312387Y-62099483D01*
G37*
G36*
X146665178Y-64496727D02*
G01*
X145287160Y-62099483D01*
X146019888Y-62099483D01*
X146980984Y-63785980D01*
X147944766Y-62099483D01*
X148677495Y-62099483D01*
X147294103Y-64496727D01*
X147294103Y-66320000D01*
X146665178Y-66320000D01*
X146665178Y-64496727D01*
G37*
D12*
G36*
X121192646Y-87290221D02*
G01*
X122821746Y-89329649D01*
X123167522Y-89720122D01*
X123416172Y-89921938D01*
X123603564Y-90005413D01*
X123798718Y-90032763D01*
X123798718Y-90150000D01*
X121387430Y-90150000D01*
X121387430Y-90032763D01*
X121594277Y-89999307D01*
X121682659Y-89960101D01*
X121733279Y-89901254D01*
X121749520Y-89832178D01*
X121727927Y-89738587D01*
X121638918Y-89570076D01*
X121435057Y-89285990D01*
X120372906Y-87954256D01*
X120202242Y-88094085D01*
X120202242Y-89348883D01*
X120216070Y-89686434D01*
X120243152Y-89812028D01*
X120299947Y-89893612D01*
X120400078Y-89968039D01*
X120535368Y-90013634D01*
X120772549Y-90032763D01*
X120772549Y-90150000D01*
X118436366Y-90150000D01*
X118436366Y-90032763D01*
X118589934Y-90032763D01*
X118778962Y-90012704D01*
X118914471Y-89959185D01*
X118990744Y-89895058D01*
X119050942Y-89790657D01*
X119075695Y-89673339D01*
X119088494Y-89348883D01*
X119088494Y-86320272D01*
X119075828Y-85988871D01*
X119050942Y-85864453D01*
X118997091Y-85782014D01*
X118898901Y-85704780D01*
X118772220Y-85655236D01*
X118589934Y-85636392D01*
X118436366Y-85636392D01*
X118436366Y-85519155D01*
X120741713Y-85519155D01*
X120741713Y-85636392D01*
X120522213Y-85656413D01*
X120383287Y-85706612D01*
X120305816Y-85770091D01*
X120243152Y-85871475D01*
X120216093Y-85992573D01*
X120202242Y-86320272D01*
X120202242Y-87723752D01*
X121920185Y-86349275D01*
X122147658Y-86139305D01*
X122251496Y-85992196D01*
X122278916Y-85887657D01*
X122244666Y-85775665D01*
X122132065Y-85684019D01*
X122029170Y-85657252D01*
X121759595Y-85636392D01*
X121759595Y-85519155D01*
X123566382Y-85519155D01*
X123566382Y-85636392D01*
X123338780Y-85669884D01*
X123185363Y-85724930D01*
X123008116Y-85842533D01*
X122548499Y-86205478D01*
X121192646Y-87290221D01*
G37*
D13*
%TO.C,REF\u002A\u002A*%
X113030000Y-53975000D02*
X112260000Y-53975000D01*
X114300000Y-46355000D02*
X111760000Y-48895000D01*
X114300000Y-53975000D02*
X113030000Y-53975000D01*
X115570000Y-47625000D02*
X111760000Y-51435000D01*
X115570000Y-55245000D02*
X114300000Y-53975000D01*
X115570000Y-55245000D02*
X128270000Y-55245000D01*
X116840000Y-50165000D02*
X120650000Y-50165000D01*
X116840000Y-51435000D02*
X115570000Y-52705000D01*
X119380000Y-51435000D02*
X116840000Y-51435000D01*
X120650000Y-52705000D02*
X119380000Y-51435000D01*
X123190000Y-47625000D02*
X115570000Y-47625000D01*
X123190000Y-52705000D02*
X120650000Y-50165000D01*
X124460000Y-46355000D02*
X114300000Y-46355000D01*
X124460000Y-53975000D02*
X123190000Y-52705000D01*
X125730000Y-47625000D02*
X124460000Y-46355000D01*
X125730000Y-50165000D02*
X123190000Y-47625000D01*
X125730000Y-53975000D02*
X124460000Y-53975000D01*
X127000000Y-48895000D02*
X125730000Y-47625000D01*
X127000000Y-51435000D02*
X125730000Y-50165000D01*
X128270000Y-50165000D02*
X127000000Y-48895000D01*
X130310000Y-53975000D02*
X125730000Y-53975000D01*
X131580000Y-56515000D02*
X112260000Y-56515000D01*
X132080000Y-50165000D02*
X128270000Y-50165000D01*
X133350000Y-51435000D02*
X127000000Y-51435000D01*
X134620000Y-47625000D02*
X132080000Y-50165000D01*
X134620000Y-52705000D02*
X133350000Y-51435000D01*
X134620000Y-55245000D02*
X134620000Y-52705000D01*
X112260000Y-53975000D02*
G75*
G02*
X111260000Y-53975000I-500000J0D01*
G01*
X111260000Y-53975000D02*
G75*
G02*
X112260000Y-53975000I500000J0D01*
G01*
X112260000Y-56515000D02*
G75*
G02*
X111260000Y-56515000I-500000J0D01*
G01*
X111260000Y-56515000D02*
G75*
G02*
X112260000Y-56515000I500000J0D01*
G01*
X116705000Y-50165000D02*
G75*
G02*
X115705000Y-50165000I-500000J0D01*
G01*
X115705000Y-50165000D02*
G75*
G02*
X116705000Y-50165000I500000J0D01*
G01*
X131310000Y-53975000D02*
G75*
G02*
X130310000Y-53975000I-500000J0D01*
G01*
X130310000Y-53975000D02*
G75*
G02*
X131310000Y-53975000I500000J0D01*
G01*
X132580000Y-56515000D02*
G75*
G02*
X131580000Y-56515000I-500000J0D01*
G01*
X131580000Y-56515000D02*
G75*
G02*
X132580000Y-56515000I500000J0D01*
G01*
%TD*%
D14*
%TO.P,TP2,1,1*%
%TO.N,Net-(TP2-Pad1)*%
X111506000Y-88900000D03*
%TD*%
%TO.P,TP4,1,1*%
%TO.N,VCC*%
X111531400Y-91008200D03*
%TD*%
D15*
%TO.P,D1,1,K*%
%TO.N,Net-(D1-Pad1)*%
X124993400Y-94206200D03*
%TO.P,D1,2,A*%
%TO.N,Net-(D1-Pad2)*%
X124993400Y-95176200D03*
%TD*%
D16*
%TO.P,D4,1,K*%
%TO.N,Net-(D4-Pad1)*%
X125018800Y-81818200D03*
%TO.P,D4,2,A*%
%TO.N,Net-(D1-Pad2)*%
X125018800Y-80848200D03*
%TD*%
D14*
%TO.P,TP5,1,1*%
%TO.N,GND*%
X111531400Y-84683600D03*
%TD*%
D17*
%TO.P,R5,1*%
%TO.N,Net-(D3-Pad1)*%
X119862600Y-81862200D03*
%TO.P,R5,2*%
%TO.N,GND*%
X119862600Y-80842200D03*
%TD*%
D18*
%TO.P,C1,1*%
%TO.N,Net-(C1-Pad1)*%
X172770800Y-94917200D03*
%TO.P,C1,2*%
%TO.N,GND*%
X172770800Y-93957200D03*
%TD*%
D19*
%TO.P,R3,1*%
%TO.N,Net-(D1-Pad1)*%
X122453400Y-94181200D03*
%TO.P,R3,2*%
%TO.N,GND*%
X122453400Y-95201200D03*
%TD*%
%TO.P,R4,1*%
%TO.N,Net-(D2-Pad1)*%
X119913400Y-94181200D03*
%TO.P,R4,2*%
%TO.N,GND*%
X119913400Y-95201200D03*
%TD*%
D20*
%TO.P,R2,1*%
%TO.N,Net-(C1-Pad1)*%
X169642600Y-93218000D03*
%TO.P,R2,2*%
%TO.N,Net-(D1-Pad2)*%
X170662600Y-93218000D03*
%TD*%
D15*
%TO.P,D2,1,K*%
%TO.N,Net-(D2-Pad1)*%
X117348000Y-94206200D03*
%TO.P,D2,2,A*%
%TO.N,Net-(D1-Pad2)*%
X117348000Y-95176200D03*
%TD*%
D14*
%TO.P,TP1,1,1*%
%TO.N,Net-(TP1-Pad1)*%
X111531400Y-86842601D03*
%TD*%
D17*
%TO.P,R6,1*%
%TO.N,Net-(D4-Pad1)*%
X122301000Y-81838800D03*
%TO.P,R6,2*%
%TO.N,GND*%
X122301000Y-80818800D03*
%TD*%
D16*
%TO.P,D3,1,K*%
%TO.N,Net-(D3-Pad1)*%
X117322601Y-81848701D03*
%TO.P,D3,2,A*%
%TO.N,Net-(D1-Pad2)*%
X117322601Y-80878701D03*
%TD*%
D14*
%TO.P,TP3,1,1*%
%TO.N,Net-(TP3-Pad1)*%
X174523400Y-94665800D03*
%TD*%
%TO.P,REF\u002A\u002A,1*%
%TO.N,N/C*%
X111760000Y-48895000D03*
X111760000Y-48895000D03*
X111760000Y-51435000D03*
X111760000Y-51435000D03*
X115570000Y-52705000D03*
X115570000Y-52705000D03*
X120650000Y-52705000D03*
X120650000Y-52705000D03*
X128270000Y-55245000D03*
X128270000Y-55245000D03*
X134620000Y-47625000D03*
X134620000Y-47625000D03*
X134620000Y-55245000D03*
X134620000Y-55245000D03*
%TD*%
D21*
%TO.P,U1,1,LA*%
%TO.N,Net-(U1-Pad1)*%
X177384800Y-93413355D03*
D22*
%TO.P,U1,2,VSS*%
%TO.N,GND*%
X176834800Y-93413355D03*
%TO.P,U1,3,SCL*%
%TO.N,Net-(TP1-Pad1)*%
X176334800Y-93413355D03*
D23*
%TO.P,U1,4,FD*%
%TO.N,Net-(TP3-Pad1)*%
X176234800Y-94013355D03*
D22*
%TO.P,U1,5,SDA*%
%TO.N,Net-(TP2-Pad1)*%
X176334800Y-94613355D03*
%TO.P,U1,6,VCC*%
%TO.N,VCC*%
X176834800Y-94613355D03*
%TO.P,U1,7,VOUT*%
%TO.N,Net-(C1-Pad1)*%
X177334800Y-94613355D03*
D23*
%TO.P,U1,8,LB*%
%TO.N,Net-(U1-Pad1)*%
X177434800Y-94013355D03*
%TD*%
D24*
%TO.P,R1,1*%
%TO.N,VCC*%
X170664600Y-94996000D03*
%TO.P,R1,2*%
%TO.N,Net-(C1-Pad1)*%
X169644600Y-94996000D03*
%TD*%
D25*
%TO.N,VCC*%
X174281631Y-96231820D03*
X109880400Y-91033600D03*
%TO.N,GND*%
X121208800Y-94716600D03*
X172770747Y-92568387D03*
X121107200Y-81356200D03*
X109880400Y-84709000D03*
%TO.N,Net-(D1-Pad2)*%
X167716200Y-93700600D03*
X123672600Y-81305400D03*
X123723400Y-94716600D03*
X118567200Y-81330800D03*
X118618000Y-94716600D03*
%TO.N,Net-(TP1-Pad1)*%
X109880400Y-86868000D03*
X174498000Y-93294200D03*
%TO.N,Net-(TP2-Pad1)*%
X109880400Y-88950800D03*
X175664839Y-95757877D03*
%TO.N,Net-(U1-Pad1)*%
X178614070Y-84606465D03*
X176612550Y-90456085D03*
X178614070Y-90456085D03*
%TD*%
D26*
%TO.N,*%
X128549400Y-90652600D02*
X131064000Y-90652600D01*
X124637800Y-88468200D02*
X127558800Y-88468200D01*
X124587000Y-85953600D02*
X127558800Y-85953600D01*
X124637800Y-89662000D02*
X127558800Y-89662000D01*
X127889000Y-88798400D02*
X131064000Y-88798400D01*
X128524000Y-84988400D02*
X131064000Y-84988400D01*
X127558800Y-85953600D02*
X128524000Y-84988400D01*
X127558800Y-89662000D02*
X128549400Y-90652600D01*
X127558800Y-87198200D02*
X127889000Y-86868000D01*
X127889000Y-86868000D02*
X131089400Y-86868000D01*
X124612400Y-87198200D02*
X127558800Y-87198200D01*
X127558800Y-88468200D02*
X127889000Y-88798400D01*
%TO.N,VCC*%
X175278990Y-96689397D02*
X174821413Y-96231820D01*
X176050688Y-96689397D02*
X175278990Y-96689397D01*
X109880400Y-91033600D02*
X111506000Y-91033600D01*
X113487200Y-90982800D02*
X114757200Y-89712800D01*
X111683803Y-90982800D02*
X113487200Y-90982800D01*
X176834800Y-94613355D02*
X176834800Y-95905285D01*
X174821413Y-96231820D02*
X171900420Y-96231820D01*
X111506000Y-91033600D02*
X111531400Y-91008200D01*
X176834800Y-95905285D02*
X176050688Y-96689397D01*
X171900420Y-96231820D02*
X170664600Y-94996000D01*
X111531400Y-91135203D02*
X111683803Y-90982800D01*
X114757200Y-89712800D02*
X117602000Y-89712800D01*
%TO.N,GND*%
X117500400Y-86029800D02*
X117551200Y-86080600D01*
X121208800Y-94716600D02*
X120398000Y-94716600D01*
X120376600Y-81356200D02*
X119862600Y-80842200D01*
X176834800Y-93413355D02*
X176834800Y-93091000D01*
X121107200Y-81356200D02*
X121763600Y-81356200D01*
X120398000Y-94716600D02*
X119913400Y-95201200D01*
X111506000Y-84709000D02*
X111531400Y-84683600D01*
X172770800Y-92568440D02*
X172770747Y-92568387D01*
X121107200Y-81356200D02*
X120376600Y-81356200D01*
X109880400Y-84709000D02*
X111506000Y-84709000D01*
X172770800Y-93957200D02*
X172770800Y-92568440D01*
X176098200Y-92354400D02*
X172984734Y-92354400D01*
X114757200Y-86029800D02*
X117500400Y-86029800D01*
X172984734Y-92354400D02*
X172770747Y-92568387D01*
X113411000Y-84683600D02*
X114757200Y-86029800D01*
X121968800Y-94716600D02*
X122453400Y-95201200D01*
X121763600Y-81356200D02*
X122301000Y-80818800D01*
X121208800Y-94716600D02*
X121968800Y-94716600D01*
X111531400Y-84683600D02*
X113411000Y-84683600D01*
X176834800Y-93091000D02*
X176098200Y-92354400D01*
%TO.N,Net-(D1-Pad1)*%
X124663200Y-93040200D02*
X124993400Y-93370400D01*
X122936000Y-92557600D02*
X123418600Y-93040200D01*
X122453400Y-94181200D02*
X122453400Y-93497400D01*
X121716800Y-92760800D02*
X121716800Y-91440000D01*
X124993400Y-93370400D02*
X124993400Y-94206200D01*
X123418600Y-93040200D02*
X124663200Y-93040200D01*
X122453400Y-93497400D02*
X121716800Y-92760800D01*
X122936000Y-91440000D02*
X122936000Y-92557600D01*
X121716800Y-91440000D02*
X122936000Y-91440000D01*
%TO.N,Net-(D1-Pad2)*%
X117401200Y-95123000D02*
X118211600Y-95123000D01*
X118567200Y-81330800D02*
X118115101Y-80878701D01*
X124993400Y-95176200D02*
X124183000Y-95176200D01*
X118115101Y-80878701D02*
X117322601Y-80878701D01*
X123672600Y-81305400D02*
X124129800Y-80848200D01*
X170015600Y-92571000D02*
X170662600Y-93218000D01*
X118211600Y-95123000D02*
X118618000Y-94716600D01*
X167716200Y-93700600D02*
X168845800Y-92571000D01*
X124129800Y-80848200D02*
X125018800Y-80848200D01*
X117348000Y-95176200D02*
X117401200Y-95123000D01*
X168845800Y-92571000D02*
X170015600Y-92571000D01*
X124183000Y-95176200D02*
X123723400Y-94716600D01*
%TO.N,Net-(D2-Pad1)*%
X120497600Y-92837000D02*
X119913400Y-93421200D01*
X118745000Y-93116400D02*
X119253000Y-92608400D01*
X117348000Y-94206200D02*
X117348000Y-93624400D01*
X117348000Y-93624400D02*
X117856000Y-93116400D01*
X119913400Y-93421200D02*
X119913400Y-94181200D01*
X119253000Y-91363800D02*
X120497600Y-91363800D01*
X120497600Y-91363800D02*
X120497600Y-92837000D01*
X119253000Y-92608400D02*
X119253000Y-91363800D01*
X117856000Y-93116400D02*
X118745000Y-93116400D01*
%TO.N,Net-(D3-Pad1)*%
X119862600Y-82296000D02*
X119862600Y-81862200D01*
X120497600Y-82931000D02*
X119862600Y-82296000D01*
X120421400Y-84353400D02*
X120497600Y-84277200D01*
X117754400Y-83083400D02*
X118668800Y-83083400D01*
X119253000Y-84353400D02*
X120421400Y-84353400D01*
X117322601Y-81848701D02*
X117322601Y-82651601D01*
X117322601Y-82651601D02*
X117754400Y-83083400D01*
X119253000Y-83667600D02*
X119253000Y-84353400D01*
X118668800Y-83083400D02*
X119253000Y-83667600D01*
X120497600Y-84277200D02*
X120497600Y-82931000D01*
%TO.N,Net-(D4-Pad1)*%
X121691400Y-82854800D02*
X121691400Y-84404200D01*
X124510800Y-83007200D02*
X123596400Y-83007200D01*
X125018800Y-81818200D02*
X125018800Y-82499200D01*
X122301000Y-81838800D02*
X122301000Y-82245200D01*
X122301000Y-82245200D02*
X121691400Y-82854800D01*
X122936000Y-83667600D02*
X122936000Y-84277200D01*
X125018800Y-82499200D02*
X124510800Y-83007200D01*
X123596400Y-83007200D02*
X122936000Y-83667600D01*
X121691400Y-84404200D02*
X122809000Y-84404200D01*
X122809000Y-84404200D02*
X122936000Y-84277200D01*
%TO.N,Net-(C1-Pad1)*%
X169644600Y-96086200D02*
X169644600Y-94996000D01*
X170721740Y-97163340D02*
X169644600Y-96086200D01*
X171373800Y-94208600D02*
X172082400Y-94917200D01*
X170332400Y-94208600D02*
X171373800Y-94208600D01*
X169642600Y-93218000D02*
X169642600Y-94994000D01*
X177927000Y-95205555D02*
X177927000Y-95732600D01*
X172082400Y-94917200D02*
X172770800Y-94917200D01*
X169642600Y-93518800D02*
X170332400Y-94208600D01*
X169642600Y-93218000D02*
X169642600Y-93518800D01*
X177334800Y-94613355D02*
X177927000Y-95205555D01*
X176496260Y-97163340D02*
X170721740Y-97163340D01*
X177927000Y-95732600D02*
X176496260Y-97163340D01*
%TO.N,Net-(TP1-Pad1)*%
X109880400Y-86868000D02*
X111506001Y-86868000D01*
X176215645Y-93294200D02*
X176334800Y-93413355D01*
X114757200Y-87249000D02*
X117602000Y-87249000D01*
X111506001Y-86868000D02*
X111531400Y-86842601D01*
X114350801Y-86842601D02*
X114757200Y-87249000D01*
X174498000Y-93294200D02*
X176215645Y-93294200D01*
X111531400Y-86842601D02*
X114350801Y-86842601D01*
%TO.N,Net-(TP2-Pad1)*%
X111455200Y-88950800D02*
X111506000Y-88900000D01*
X111683802Y-88874600D02*
X111531400Y-89027002D01*
X117602000Y-88468200D02*
X114757200Y-88468200D01*
X114757200Y-88468200D02*
X114350800Y-88874600D01*
X175664839Y-95283316D02*
X176334800Y-94613355D01*
X109880400Y-88950800D02*
X111455200Y-88950800D01*
X114249200Y-88874600D02*
X111683802Y-88874600D01*
X175664839Y-95757877D02*
X175664839Y-95283316D01*
X114350800Y-88874600D02*
X114274600Y-88874600D01*
%TO.N,Net-(TP3-Pad1)*%
X174523400Y-94665800D02*
X175175845Y-94013355D01*
X175175845Y-94013355D02*
X176234800Y-94013355D01*
D27*
%TO.N,Net-(U1-Pad1)*%
X168710610Y-49211565D02*
X168504870Y-49287765D01*
X167288210Y-85381165D02*
X167237410Y-85216065D01*
X188553090Y-85876465D02*
X188471810Y-86054265D01*
X188687710Y-52404345D02*
X188626750Y-52218925D01*
X168344850Y-87725585D02*
X168177210Y-87626525D01*
X176541430Y-89305465D02*
X176571910Y-89376585D01*
X177112930Y-86707045D02*
X177963830Y-87456345D01*
X167112950Y-53557505D02*
X167112950Y-84357545D01*
X185192670Y-85190665D02*
X185279030Y-85167805D01*
X185599070Y-88165005D02*
X185403490Y-88187865D01*
X185360310Y-52780265D02*
X185279030Y-52747245D01*
X185865770Y-53557505D02*
X185860690Y-53468605D01*
X168504870Y-49287765D02*
X168304210Y-49374125D01*
X186536330Y-84852845D02*
X186493150Y-84969685D01*
X168997630Y-52518645D02*
X168918890Y-52617705D01*
X185954670Y-85652945D02*
X185850530Y-85721525D01*
X170214290Y-51957305D02*
X185014870Y-51957305D01*
X189485270Y-85442125D02*
X189429390Y-85652945D01*
X188822330Y-52973305D02*
X188786770Y-52782805D01*
X185825130Y-84621705D02*
X185847990Y-84535345D01*
X166343330Y-51070845D02*
X166231570Y-51256265D01*
X169330370Y-86552105D02*
X169470070Y-86602905D01*
X167039290Y-87687485D02*
X166884350Y-87532545D01*
X170089830Y-51962385D02*
X169962830Y-51977625D01*
X165868350Y-52053825D02*
X165799770Y-52262105D01*
X186643010Y-51893805D02*
X186747150Y-52003025D01*
X169912030Y-86696885D02*
X170061890Y-86707045D01*
X169718990Y-85879005D02*
X169840910Y-85914565D01*
X186663330Y-50933685D02*
X186513470Y-50844785D01*
X186808110Y-86884845D02*
X186947810Y-86780705D01*
X185515250Y-85045885D02*
X185583830Y-84990005D01*
X167877490Y-53356845D02*
X167867330Y-53506705D01*
X167562530Y-87149005D02*
X167422830Y-87009305D01*
X186201050Y-50694925D02*
X186038490Y-50631425D01*
X177963830Y-87456345D02*
X185014870Y-87456345D01*
X187206890Y-86549565D02*
X187326270Y-86422565D01*
X166757350Y-86054265D02*
X166676070Y-85876465D01*
X168685210Y-86171105D02*
X168802050Y-86265085D01*
X186518550Y-88703485D02*
X186310270Y-88772065D01*
X186615070Y-84357545D02*
X186609990Y-84482005D01*
X169190670Y-87283625D02*
X169028110Y-87220125D01*
X170061890Y-86707045D02*
X170214290Y-86709585D01*
X185233310Y-48962645D02*
X185451750Y-48977885D01*
X185210450Y-88203105D02*
X185014870Y-88208185D01*
X185139330Y-85952665D02*
X185014870Y-85957745D01*
X166124890Y-51449305D02*
X166030910Y-51647425D01*
X169381170Y-53379705D02*
X169404030Y-53293345D01*
X189104270Y-51449305D02*
X189198250Y-51647425D01*
X186612530Y-53557505D02*
X186612530Y-84357545D01*
X189609730Y-53339065D02*
X189614810Y-53557505D01*
X168586150Y-51893805D02*
X168482010Y-52003025D01*
X175964850Y-88957485D02*
X176043590Y-88962565D01*
X186711590Y-87814485D02*
X186533790Y-87895765D01*
X166737030Y-87369985D02*
X166597330Y-87199805D01*
X188743590Y-52592305D02*
X188687710Y-52404345D01*
X167562530Y-50766045D02*
X167707310Y-50636505D01*
X166602410Y-52218925D02*
X166676070Y-52038585D01*
X166884350Y-50382505D02*
X166737030Y-50545065D01*
X170214290Y-48957565D02*
X185014870Y-48957565D01*
X170214290Y-88208185D02*
X170963590Y-88208185D01*
X167707310Y-50636505D02*
X167857170Y-50512045D01*
X167158670Y-84875705D02*
X167135810Y-84705525D01*
X166231570Y-86658785D02*
X166124890Y-86465745D01*
X185233310Y-88952405D02*
X185014870Y-88957485D01*
X168014650Y-87517305D02*
X167857170Y-87403005D01*
X189360810Y-52053825D02*
X189429390Y-52262105D01*
X165944550Y-86066965D02*
X165868350Y-85861225D01*
X167928290Y-53059665D02*
X167897810Y-53206985D01*
X167422830Y-87009305D02*
X167293290Y-86864525D01*
X187206890Y-51365485D02*
X187079890Y-51246105D01*
X187371990Y-87403005D02*
X187214510Y-87517305D01*
X170214290Y-88957485D02*
X175964850Y-88957485D01*
X189614810Y-84357545D02*
X189614810Y-53557505D01*
X187016390Y-52363705D02*
X187090050Y-52495785D01*
X168057830Y-85335445D02*
X168121330Y-85470065D01*
X168149270Y-86668945D02*
X168022270Y-86549565D01*
X185847990Y-53379705D02*
X185825130Y-53293345D01*
X169274490Y-52262105D02*
X169175430Y-52340845D01*
X167168830Y-51200385D02*
X167293290Y-51050525D01*
X168619170Y-53433045D02*
X168614090Y-53557505D01*
X167120570Y-53384785D02*
X167135810Y-53209525D01*
X167054530Y-51357865D02*
X167168830Y-51200385D01*
X186439810Y-85083985D02*
X186378850Y-85193205D01*
X169866310Y-87436025D02*
X169696130Y-87413165D01*
X185873390Y-50580625D02*
X185703210Y-50537445D01*
X187356750Y-84609005D02*
X187364370Y-84459145D01*
X168281350Y-86780705D02*
X168149270Y-86668945D01*
X168565830Y-50933685D02*
X168715690Y-50844785D01*
X169470070Y-86602905D02*
X169617390Y-86643545D01*
X185627010Y-52079225D02*
X185741310Y-52132565D01*
X176612550Y-88208185D02*
X170963590Y-88208185D01*
X185751470Y-84781725D02*
X185792110Y-84702985D01*
X167915590Y-84906185D02*
X167953690Y-85050965D01*
X168014650Y-52770105D02*
X167966390Y-52914885D01*
X188189870Y-50227565D02*
X188344810Y-50382505D01*
X167194230Y-52869165D02*
X167237410Y-52698985D01*
X168918890Y-49142985D02*
X168710610Y-49211565D01*
X168304210Y-88540925D02*
X168106090Y-88446945D01*
X187364370Y-53656565D02*
X187364370Y-84456605D01*
X187351670Y-53356845D02*
X187361830Y-53506705D01*
X186513470Y-87070265D02*
X186663330Y-86981365D01*
X168382950Y-52117325D02*
X168294050Y-52239245D01*
X167194230Y-85045885D02*
X167158670Y-84875705D01*
X168466770Y-85962825D02*
X168570910Y-86069505D01*
X169129710Y-88827945D02*
X168918890Y-88772065D01*
X168997630Y-85396405D02*
X169083990Y-85487845D01*
X188761370Y-50890505D02*
X188885830Y-51070845D01*
X185860690Y-84446445D02*
X185865770Y-84357545D01*
X167237410Y-85216065D02*
X167194230Y-85045885D01*
X186231530Y-85396405D02*
X186145170Y-85487845D01*
X167351710Y-85543725D02*
X167288210Y-85381165D01*
X187501530Y-88228505D02*
X187313570Y-88340265D01*
X185583830Y-52925045D02*
X185515250Y-52869165D01*
X185014870Y-88208185D02*
X177664110Y-88208185D01*
X168482010Y-52003025D02*
X168382950Y-52117325D01*
X186924950Y-88540925D02*
X186724290Y-88627285D01*
X167351710Y-52371325D02*
X167422830Y-52213845D01*
X166363650Y-53557505D02*
X166368730Y-53361925D01*
X186145170Y-52427205D02*
X186231530Y-52518645D01*
X169249090Y-88086265D02*
X169061130Y-88030385D01*
X167054530Y-86557185D02*
X166945310Y-86394625D01*
X166597330Y-87199805D02*
X166467790Y-87024545D01*
X165660070Y-85012865D02*
X165634670Y-84794425D01*
X185012330Y-86709585D02*
X185164730Y-86707045D01*
X189104270Y-86465745D02*
X188997590Y-86656245D01*
X169645330Y-52925045D02*
X169713910Y-52869165D01*
X186035950Y-86493685D02*
X186170570Y-86425105D01*
X188060330Y-86714665D02*
X187935870Y-86864525D01*
X168367710Y-85848525D02*
X168466770Y-85962825D01*
X185754010Y-51342625D02*
X185893710Y-51395965D01*
X188822330Y-84941745D02*
X188786770Y-85132245D01*
X188113670Y-84357545D02*
X188113670Y-53557505D01*
X166231570Y-51256265D02*
X166124890Y-51449305D01*
X187224670Y-85195745D02*
X187272930Y-85050965D01*
X186353450Y-49945625D02*
X186168030Y-49884665D01*
X188471810Y-51860785D02*
X188382910Y-51688065D01*
X167590470Y-51909045D02*
X167686990Y-51764265D01*
X185515250Y-52869165D02*
X185439050Y-52820905D01*
X186493150Y-52945365D02*
X186536330Y-53062205D01*
X187727590Y-52058905D02*
X187638690Y-51909045D01*
X168697910Y-51792205D02*
X168586150Y-51893805D01*
X185187590Y-87451265D02*
X185362850Y-87436025D01*
X185980070Y-88086265D02*
X185789570Y-88129445D01*
X168814750Y-51695685D02*
X168697910Y-51792205D01*
X189614810Y-84357545D02*
X189609730Y-84575985D01*
X186168030Y-49884665D02*
X185980070Y-49828785D01*
X167201850Y-87834805D02*
X167039290Y-87687485D01*
X185647330Y-52988545D02*
X185583830Y-52925045D01*
X169617390Y-86643545D02*
X169764710Y-86674025D01*
X168517570Y-50100565D02*
X168695370Y-50019285D01*
X169602150Y-85835825D02*
X169718990Y-85879005D01*
X186099450Y-88827945D02*
X185886090Y-88873665D01*
X166406830Y-52973305D02*
X166442390Y-52782805D01*
X169477690Y-53133325D02*
X169525950Y-53057125D01*
X169805350Y-85025565D02*
X169884090Y-85058585D01*
X167857170Y-87403005D02*
X167707310Y-87278545D01*
X187542170Y-51764265D02*
X187438030Y-51624565D01*
X185510170Y-52036045D02*
X185627010Y-52079225D01*
X188344810Y-87532545D02*
X188189870Y-87687485D01*
X187272930Y-85050965D02*
X187311030Y-84906185D01*
X169602150Y-84880785D02*
X169665650Y-84936665D01*
X189569090Y-85012865D02*
X189530990Y-85228765D01*
X168614090Y-53557505D02*
X168614090Y-84357545D01*
X185279030Y-85167805D02*
X185360310Y-85134785D01*
X188492130Y-87369985D02*
X188344810Y-87532545D01*
X170214290Y-88208185D02*
X170018710Y-88203105D01*
X169335450Y-51395965D02*
X169198290Y-51459465D01*
X168121330Y-85470065D02*
X168194990Y-85602145D01*
X169355770Y-87334425D02*
X169190670Y-87283625D01*
X185583830Y-84990005D02*
X185647330Y-84926505D01*
X188093350Y-84705525D02*
X188108590Y-84530265D01*
X169825670Y-88187865D02*
X169630090Y-88165005D01*
X166846250Y-51688065D02*
X166945310Y-51520425D01*
X185741310Y-52132565D02*
X185850530Y-52193525D01*
X168789350Y-85083985D02*
X168850310Y-85193205D01*
X167890190Y-84758865D02*
X167915590Y-84906185D01*
X185014870Y-87456345D02*
X185187590Y-87451265D01*
X185451750Y-48977885D02*
X185670190Y-49003285D01*
X170125390Y-52711685D02*
X170214290Y-52706605D01*
X186310270Y-52617705D02*
X186378850Y-52721845D01*
X186353450Y-87969425D02*
X186168030Y-88030385D01*
X170214290Y-48957565D02*
X169995850Y-48962645D01*
X185609230Y-86643545D02*
X185756550Y-86602905D01*
X167862250Y-84459145D02*
X167869870Y-84609005D01*
X166597330Y-50715245D02*
X166467790Y-50890505D01*
X168736010Y-84969685D02*
X168789350Y-85083985D01*
X185792110Y-84702985D02*
X185825130Y-84621705D01*
X167115490Y-53557505D02*
X167120570Y-53384785D01*
X185980070Y-49828785D02*
X185789570Y-49785605D01*
X187681870Y-88104045D02*
X187501530Y-88228505D01*
X169995850Y-48962645D02*
X169777410Y-48977885D01*
X167135810Y-84705525D02*
X167120570Y-84530265D01*
X168634410Y-53306045D02*
X168619170Y-53433045D01*
X169840910Y-85914565D02*
X169962830Y-85937425D01*
X186724290Y-88627285D02*
X186518550Y-88703485D01*
X176333150Y-89071785D02*
X176396650Y-89120045D01*
X185266330Y-51977625D02*
X185388250Y-52000485D01*
X169665650Y-84936665D02*
X169734230Y-84984925D01*
X168850310Y-52721845D02*
X168789350Y-52831065D01*
X186571890Y-84730925D02*
X186536330Y-84852845D01*
X169713910Y-52869165D02*
X169787570Y-52820905D01*
X187300870Y-53059665D02*
X187331350Y-53206985D01*
X188027310Y-87834805D02*
X187857130Y-87974505D01*
X188283850Y-51520425D02*
X188174630Y-51357865D01*
X169487850Y-52132565D02*
X169378630Y-52193525D01*
X168875710Y-49945625D02*
X169061130Y-49884665D01*
X188553090Y-52038585D02*
X188471810Y-51860785D01*
X168421050Y-86884845D02*
X168281350Y-86780705D01*
X167915590Y-49574785D02*
X167727630Y-49686545D01*
X186292490Y-51609325D02*
X186414410Y-51695685D01*
X186747150Y-52003025D02*
X186846210Y-52117325D01*
X167867330Y-53506705D02*
X167864790Y-53659105D01*
X185451750Y-88937165D02*
X185233310Y-88952405D01*
X170214290Y-86707045D02*
X177112930Y-86707045D01*
X167039290Y-50227565D02*
X166884350Y-50382505D01*
X176452530Y-89175925D02*
X176500790Y-89239425D01*
X169825670Y-49727185D02*
X170018710Y-49711945D01*
X167120570Y-84530265D02*
X167115490Y-84357545D01*
X185886090Y-49041385D02*
X186099450Y-49087105D01*
X189429390Y-85652945D02*
X189360810Y-85861225D01*
X188174630Y-86557185D02*
X188060330Y-86714665D01*
X188743590Y-85322745D02*
X188687710Y-85510705D01*
X169787570Y-52820905D02*
X169868850Y-52780265D01*
X186609990Y-84482005D02*
X186594750Y-84609005D01*
X168106090Y-49468105D02*
X167915590Y-49574785D01*
X166676070Y-52038585D02*
X166757350Y-51860785D01*
X167902890Y-51492485D02*
X168022270Y-51365485D01*
X169525950Y-87377605D02*
X169355770Y-87334425D01*
X165944550Y-51848085D02*
X165868350Y-52053825D01*
X168281350Y-51134345D02*
X168421050Y-51030205D01*
X187542170Y-86150785D02*
X187638690Y-86006005D01*
X169028110Y-50694925D02*
X169190670Y-50631425D01*
X185388250Y-52000485D02*
X185510170Y-52036045D01*
X167422830Y-85701205D02*
X167351710Y-85543725D01*
X166884350Y-87532545D02*
X166737030Y-87369985D01*
X166541450Y-85510705D02*
X166485570Y-85322745D01*
D26*
X176612550Y-92190905D02*
X177384800Y-92963155D01*
D27*
X188070490Y-84875705D02*
X188093350Y-84705525D01*
X188382910Y-86226985D02*
X188283850Y-86394625D01*
X177364390Y-88957485D02*
X176612550Y-88208185D01*
X187316110Y-49574785D02*
X187501530Y-49686545D01*
X168344850Y-50189465D02*
X168517570Y-50100565D01*
X169558970Y-49003285D02*
X169343070Y-49041385D01*
X188283850Y-86394625D02*
X188174630Y-86557185D01*
X169995850Y-88952405D02*
X169777410Y-88937165D01*
X187311030Y-84906185D02*
X187336430Y-84758865D01*
X166030910Y-86267625D02*
X165944550Y-86066965D01*
X185439050Y-52820905D02*
X185360310Y-52780265D01*
X168022270Y-51365485D02*
X168149270Y-51246105D01*
X187806330Y-52213845D02*
X187727590Y-52058905D01*
X185860690Y-53468605D02*
X185847990Y-53379705D01*
X185103770Y-85203365D02*
X185192670Y-85190665D01*
X186378850Y-52721845D02*
X186439810Y-52831065D01*
X169452290Y-84677585D02*
X169495470Y-84751245D01*
X178362610Y-85957745D02*
X185014870Y-85957745D01*
X187857130Y-87974505D02*
X187681870Y-88104045D01*
X185014870Y-86707045D02*
X178164490Y-86707045D01*
X188070490Y-53039345D02*
X188034930Y-52869165D01*
X169525950Y-53057125D02*
X169581830Y-52988545D01*
X169581830Y-52988545D02*
X169645330Y-52925045D01*
X177313590Y-85957745D02*
X170214290Y-85957745D01*
X169630090Y-88165005D02*
X169439590Y-88129445D01*
X186594750Y-53306045D02*
X186609990Y-53433045D01*
X187262770Y-52914885D02*
X187300870Y-53059665D01*
X189198250Y-86267625D02*
X189104270Y-86465745D01*
X176612550Y-89607725D02*
X176612550Y-90456085D01*
X189284610Y-86066965D02*
X189198250Y-86267625D01*
X185014870Y-85208445D02*
X185103770Y-85203365D01*
X185164730Y-51215625D02*
X185314590Y-51233405D01*
X188093350Y-53209525D02*
X188070490Y-53039345D01*
X167201850Y-50080245D02*
X167039290Y-50227565D01*
X185751470Y-53133325D02*
X185703210Y-53057125D01*
D26*
X178614070Y-90456085D02*
X178614070Y-93554885D01*
D27*
X168870630Y-87149005D02*
X168715690Y-87070265D01*
X185360310Y-85134785D02*
X185439050Y-85094145D01*
X186935110Y-52239245D02*
X187016390Y-52363705D01*
X168692830Y-53062205D02*
X168657270Y-53184125D01*
X187031630Y-85602145D02*
X187105290Y-85470065D01*
X188845190Y-53168885D02*
X188822330Y-52973305D01*
X169840910Y-52000485D02*
X169718990Y-52036045D01*
X185789570Y-49785605D02*
X185599070Y-49750045D01*
D26*
X177384800Y-92963155D02*
X177384800Y-93413355D01*
D27*
X188034930Y-85045885D02*
X188070490Y-84875705D01*
X166485570Y-52592305D02*
X166541450Y-52404345D01*
X167902890Y-86422565D02*
X167791130Y-86290485D01*
X187326270Y-51492485D02*
X187206890Y-51365485D01*
X186378850Y-85193205D02*
X186310270Y-85297345D01*
X165698170Y-85228765D02*
X165660070Y-85012865D01*
X169343070Y-88873665D02*
X169129710Y-88827945D01*
X167422830Y-50905745D02*
X167562530Y-50766045D01*
X165660070Y-52902185D02*
X165634670Y-53120625D01*
X165619430Y-53339065D02*
X165614350Y-53557505D01*
X187214510Y-52770105D02*
X187262770Y-52914885D01*
X188631830Y-50715245D02*
X188761370Y-50890505D01*
X168614090Y-84357545D02*
X168619170Y-84482005D01*
X169363390Y-84357545D02*
X169371010Y-84441365D01*
X186594750Y-84609005D02*
X186571890Y-84730925D01*
X169962830Y-85083985D02*
X170046650Y-85101765D01*
X169416730Y-84601385D02*
X169452290Y-84677585D01*
X186947810Y-51134345D02*
X186808110Y-51030205D01*
X186884310Y-87725585D02*
X186711590Y-87814485D01*
X168657270Y-84730925D02*
X168692830Y-84852845D01*
X188786770Y-85132245D02*
X188743590Y-85322745D01*
X186663330Y-86981365D02*
X186808110Y-86884845D01*
X186541410Y-86171105D02*
X186655710Y-86069505D01*
X188034930Y-52869165D02*
X187991750Y-52698985D01*
X170036490Y-52724385D02*
X170125390Y-52711685D01*
X189429390Y-52262105D02*
X189485270Y-52472925D01*
X170041570Y-50463785D02*
X170214290Y-50458705D01*
X168565830Y-86981365D02*
X168421050Y-86884845D01*
X169866310Y-50479025D02*
X170041570Y-50463785D01*
X166383970Y-53168885D02*
X166406830Y-52973305D01*
X165743890Y-85442125D02*
X165698170Y-85228765D01*
X185863230Y-84357545D02*
X185863230Y-53557505D01*
X166124890Y-86465745D02*
X166030910Y-86267625D01*
X187438030Y-86290485D02*
X187542170Y-86150785D01*
X185014870Y-52706605D02*
X170214290Y-52706605D01*
X185210450Y-49711945D02*
X185014870Y-49706865D01*
X168695370Y-87895765D02*
X168517570Y-87814485D01*
X176119790Y-88975265D02*
X176195990Y-89000665D01*
X169371010Y-84441365D02*
X169391330Y-84522645D01*
X185533030Y-87413165D02*
X185703210Y-87377605D01*
X186655710Y-86069505D02*
X186759850Y-85962825D01*
X166383970Y-84746165D02*
X166368730Y-84553125D01*
X169190670Y-50631425D02*
X169355770Y-50580625D01*
X187666630Y-50766045D02*
X187521850Y-50636505D01*
X169602150Y-52079225D02*
X169487850Y-52132565D01*
X168715690Y-50844785D02*
X168870630Y-50766045D01*
X176571910Y-89376585D02*
X176597310Y-89452785D01*
X169734230Y-84984925D02*
X169805350Y-85025565D01*
X169962830Y-51977625D02*
X169840910Y-52000485D01*
X186493150Y-84969685D02*
X186439810Y-85083985D01*
X169767250Y-51261345D02*
X169619930Y-51296905D01*
X170018710Y-88203105D02*
X169825670Y-88187865D01*
X186358530Y-50766045D02*
X186201050Y-50694925D01*
X168106090Y-88446945D02*
X167915590Y-88340265D01*
X185461910Y-86674025D02*
X185609230Y-86643545D01*
X185014870Y-85205905D02*
X179213510Y-85205905D01*
X167237410Y-52698985D02*
X167288210Y-52533885D01*
X170041570Y-87451265D02*
X169866310Y-87436025D01*
X189198250Y-51647425D02*
X189284610Y-51848085D01*
X169404030Y-53293345D02*
X169437050Y-53212065D01*
X168177210Y-87626525D02*
X168014650Y-87517305D01*
X168715690Y-87070265D02*
X168565830Y-86981365D01*
X169439590Y-88129445D02*
X169249090Y-88086265D01*
X186358530Y-87149005D02*
X186513470Y-87070265D01*
X185266330Y-85937425D02*
X185139330Y-85952665D01*
X169190670Y-86493685D02*
X169330370Y-86552105D01*
X187123070Y-49468105D02*
X187316110Y-49574785D01*
X185670190Y-88911765D02*
X185451750Y-88937165D01*
X166467790Y-87024545D02*
X166343330Y-86844205D01*
X169378630Y-52193525D02*
X169274490Y-52262105D01*
X168918890Y-88772065D02*
X168710610Y-88703485D01*
X177514250Y-85106845D02*
X178362610Y-85957745D01*
X187806330Y-85701205D02*
X187877450Y-85543725D01*
X187090050Y-52495785D02*
X187156090Y-52632945D01*
X188885830Y-51070845D02*
X188997590Y-51256265D01*
X185850530Y-52193525D02*
X185954670Y-52262105D01*
X166343330Y-86844205D02*
X166231570Y-86658785D01*
X189609730Y-84575985D02*
X189594490Y-84794425D01*
X185314590Y-51233405D02*
X185461910Y-51261345D01*
X169950130Y-52747245D02*
X170036490Y-52724385D01*
X169363390Y-53557505D02*
X169368470Y-53468605D01*
X167791130Y-86290485D02*
X167686990Y-86150785D01*
X166757350Y-51860785D02*
X166846250Y-51688065D01*
X187806330Y-50905745D02*
X187666630Y-50766045D01*
X168517570Y-87814485D02*
X168344850Y-87725585D01*
X169066210Y-51530585D02*
X168936670Y-51609325D01*
X166363650Y-84357545D02*
X166363650Y-53557505D01*
X166737030Y-50545065D02*
X166597330Y-50715245D01*
X186231530Y-52518645D02*
X186310270Y-52617705D01*
X185014870Y-51208005D02*
X170214290Y-51208005D01*
X165614350Y-53557505D02*
X165614350Y-84357545D01*
X185388250Y-85914565D02*
X185266330Y-85937425D01*
X168421050Y-51030205D02*
X168565830Y-50933685D01*
X169061130Y-88030385D02*
X168875710Y-87969425D01*
X186947810Y-85729145D02*
X187031630Y-85602145D01*
X186099450Y-49087105D02*
X186310270Y-49142985D01*
X187214510Y-87517305D02*
X187051950Y-87626525D01*
X167135810Y-53209525D02*
X167158670Y-53039345D01*
X166541450Y-52404345D02*
X166602410Y-52218925D01*
X168634410Y-84609005D02*
X168657270Y-84730925D01*
X187214510Y-50397745D02*
X187051950Y-50288525D01*
X168014650Y-50397745D02*
X168177210Y-50288525D01*
X187877450Y-52371325D02*
X187806330Y-52213845D01*
X185014870Y-48957565D02*
X185233310Y-48962645D01*
X185756550Y-86602905D02*
X185896250Y-86552105D01*
X188174630Y-51357865D02*
X188060330Y-51200385D01*
X169249090Y-49828785D02*
X169439590Y-49785605D01*
X169198290Y-51459465D02*
X169066210Y-51530585D01*
X169056050Y-86425105D02*
X169190670Y-86493685D01*
X170089830Y-85952665D02*
X170214290Y-85957745D01*
X168570910Y-86069505D02*
X168685210Y-86171105D01*
X166945310Y-86394625D02*
X166846250Y-86226985D01*
X168619170Y-84482005D02*
X168634410Y-84609005D01*
X186884310Y-50189465D02*
X186711590Y-50100565D01*
X168177210Y-50288525D02*
X168344850Y-50189465D01*
X167966390Y-52914885D02*
X167928290Y-53059665D01*
X166945310Y-51520425D02*
X167054530Y-51357865D01*
X167707310Y-87278545D02*
X167562530Y-87149005D01*
X187371990Y-50512045D02*
X187214510Y-50397745D01*
X185403490Y-49727185D02*
X185210450Y-49711945D01*
X186571890Y-53184125D02*
X186594750Y-53306045D01*
X186310270Y-88772065D02*
X186099450Y-88827945D01*
X185164730Y-86707045D02*
X185314590Y-86696885D01*
X187051950Y-50288525D02*
X186884310Y-50189465D01*
X170214290Y-88957485D02*
X169995850Y-88952405D01*
X188885830Y-86844205D02*
X188761370Y-87024545D01*
X169368470Y-53468605D02*
X169381170Y-53379705D01*
X166442390Y-52782805D02*
X166485570Y-52592305D01*
X186531250Y-51792205D02*
X186643010Y-51893805D01*
X186310270Y-85297345D02*
X186231530Y-85396405D01*
X189569090Y-52902185D02*
X189594490Y-53120625D01*
X187666630Y-87149005D02*
X187521850Y-87278545D01*
X185533030Y-50501885D02*
X185362850Y-50479025D01*
X187521850Y-87278545D02*
X187371990Y-87403005D01*
X169175430Y-52340845D02*
X169083990Y-52427205D01*
X165698170Y-52686285D02*
X165660070Y-52902185D01*
X167293290Y-51050525D02*
X167422830Y-50905745D01*
X187935870Y-51050525D02*
X187806330Y-50905745D01*
X188108590Y-84530265D02*
X188113670Y-84357545D01*
X185403490Y-88187865D02*
X185210450Y-88203105D01*
X185847990Y-84535345D02*
X185860690Y-84446445D01*
X185825130Y-53293345D02*
X185792110Y-53212065D01*
X187326270Y-86422565D02*
X187438030Y-86290485D01*
X188027310Y-50080245D02*
X188189870Y-50227565D01*
X167915590Y-88340265D02*
X167727630Y-88228505D01*
X168304210Y-49374125D02*
X168106090Y-49468105D01*
X168710610Y-88703485D02*
X168504870Y-88627285D01*
X185192670Y-52724385D02*
X185103770Y-52711685D01*
X169696130Y-50501885D02*
X169866310Y-50479025D01*
X169378630Y-85721525D02*
X169487850Y-85782485D01*
X169619930Y-51296905D02*
X169475150Y-51342625D01*
X165799770Y-85652945D02*
X165743890Y-85442125D01*
X186038490Y-87283625D02*
X186201050Y-87220125D01*
X167857170Y-50512045D02*
X168014650Y-50397745D01*
X186201050Y-87220125D02*
X186358530Y-87149005D01*
X188626750Y-52218925D02*
X188553090Y-52038585D01*
X169363390Y-84357545D02*
X169363390Y-53557505D01*
X168936670Y-51609325D02*
X168814750Y-51695685D01*
X187935870Y-86864525D02*
X187806330Y-87009305D01*
X165634670Y-53120625D02*
X165619430Y-53339065D01*
X185741310Y-85782485D02*
X185627010Y-85835825D01*
X189594490Y-84794425D02*
X189569090Y-85012865D01*
X166676070Y-85876465D02*
X166602410Y-85696125D01*
X187991750Y-52698985D02*
X187940950Y-52533885D01*
X169343070Y-49041385D02*
X169129710Y-49087105D01*
X168926510Y-86348905D02*
X169056050Y-86425105D01*
X187857130Y-49940545D02*
X188027310Y-50080245D01*
X187051950Y-87626525D02*
X186884310Y-87725585D01*
X166442390Y-85132245D02*
X166406830Y-84941745D01*
X186168030Y-88030385D02*
X185980070Y-88086265D01*
X187940950Y-52533885D02*
X187877450Y-52371325D01*
X185609230Y-51296905D02*
X185754010Y-51342625D01*
X186038490Y-50631425D02*
X185873390Y-50580625D01*
X166368730Y-53361925D02*
X166383970Y-53168885D01*
X186162950Y-51530585D02*
X186292490Y-51609325D01*
X188865510Y-53557505D02*
X188860430Y-53361925D01*
X186145170Y-85487845D02*
X186053730Y-85574205D01*
X185893710Y-51395965D02*
X186030870Y-51459465D01*
X185187590Y-50463785D02*
X185014870Y-50458705D01*
X167372030Y-49940545D02*
X167201850Y-50080245D01*
X186170570Y-86425105D02*
X186300110Y-86348905D01*
X169175430Y-85574205D02*
X169274490Y-85652945D01*
X185314590Y-86696885D02*
X185461910Y-86674025D01*
X186030870Y-51459465D02*
X186162950Y-51530585D01*
X168789350Y-52831065D02*
X168736010Y-52945365D01*
X186518550Y-49211565D02*
X186724290Y-49287765D01*
X167686990Y-86150785D02*
X167590470Y-86006005D01*
X166485570Y-85322745D02*
X166442390Y-85132245D01*
X167422830Y-52213845D02*
X167501570Y-52058905D01*
X187877450Y-85543725D02*
X187940950Y-85381165D01*
X169061130Y-49884665D02*
X169249090Y-49828785D01*
X169129710Y-49087105D02*
X168918890Y-49142985D01*
X186414410Y-51695685D02*
X186531250Y-51792205D01*
X186947810Y-86780705D02*
X187079890Y-86668945D01*
X188845190Y-84746165D02*
X188822330Y-84941745D01*
X169495470Y-84751245D02*
X169543730Y-84817285D01*
X185873390Y-87334425D02*
X186038490Y-87283625D01*
X168504870Y-88627285D02*
X168304210Y-88540925D01*
X167727630Y-88228505D02*
X167547290Y-88104045D01*
X187438030Y-51624565D02*
X187326270Y-51492485D01*
X185279030Y-52747245D02*
X185192670Y-52724385D01*
X165634670Y-84794425D02*
X165619430Y-84575985D01*
X187156090Y-52632945D02*
X187214510Y-52770105D01*
X188108590Y-53384785D02*
X188093350Y-53209525D01*
X185703210Y-84857925D02*
X185751470Y-84781725D01*
X186053730Y-85574205D02*
X185954670Y-85652945D01*
X186300110Y-86348905D02*
X186424570Y-86265085D01*
X189485270Y-52472925D02*
X189530990Y-52686285D01*
X168657270Y-53184125D02*
X168634410Y-53306045D01*
X169083990Y-52427205D02*
X168997630Y-52518645D01*
X188687710Y-85510705D02*
X188626750Y-85696125D01*
X167547290Y-49811005D02*
X167372030Y-49940545D01*
X185362850Y-50479025D02*
X185187590Y-50463785D01*
D26*
X178614070Y-93554885D02*
X178155600Y-94013355D01*
D27*
X168001950Y-85195745D02*
X168057830Y-85335445D01*
X167168830Y-86714665D02*
X167054530Y-86557185D01*
X169764710Y-86674025D02*
X169912030Y-86696885D01*
X187336430Y-84758865D02*
X187356750Y-84609005D01*
X167501570Y-52058905D02*
X167590470Y-51909045D01*
X170018710Y-49711945D02*
X170214290Y-49706865D01*
X187168790Y-85335445D02*
X187224670Y-85195745D01*
X167158670Y-53039345D02*
X167194230Y-52869165D01*
X168802050Y-86265085D02*
X168926510Y-86348905D01*
X169868850Y-52780265D02*
X169950130Y-52747245D01*
X166602410Y-85696125D02*
X166541450Y-85510705D01*
X169487850Y-85782485D02*
X169602150Y-85835825D01*
X169884090Y-85058585D02*
X169962830Y-85083985D01*
X187727590Y-85856145D02*
X187806330Y-85701205D01*
X167727630Y-49686545D02*
X167547290Y-49811005D01*
X177664110Y-88208185D02*
X176813210Y-87456345D01*
X188492130Y-50545065D02*
X188631830Y-50715245D01*
X167686990Y-51764265D02*
X167791130Y-51624565D01*
X167869870Y-84609005D02*
X167890190Y-84758865D01*
X186533790Y-50019285D02*
X186353450Y-49945625D01*
X188860430Y-53361925D02*
X188845190Y-53168885D01*
X168022270Y-86549565D02*
X167902890Y-86422565D01*
X166368730Y-84553125D02*
X166363650Y-84357545D01*
X187940950Y-85381165D02*
X187991750Y-85216065D01*
X168870630Y-50766045D02*
X169028110Y-50694925D01*
X188862970Y-53557505D02*
X188862970Y-83006265D01*
X186609990Y-53433045D02*
X186615070Y-53557505D01*
X169696130Y-87413165D02*
X169525950Y-87377605D01*
X185789570Y-88129445D02*
X185599070Y-88165005D01*
X167372030Y-87974505D02*
X167201850Y-87834805D01*
X188382910Y-51688065D02*
X188283850Y-51520425D01*
X169028110Y-87220125D02*
X168870630Y-87149005D01*
X169391330Y-84522645D02*
X169416730Y-84601385D01*
X189284610Y-51848085D02*
X189360810Y-52053825D01*
X169475150Y-51342625D02*
X169335450Y-51395965D01*
X186858910Y-85848525D02*
X186947810Y-85729145D01*
X188626750Y-85696125D02*
X188553090Y-85876465D01*
X189360810Y-85861225D02*
X189284610Y-86066965D01*
X168139110Y-52495785D02*
X168073070Y-52632945D01*
X186711590Y-50100565D02*
X186533790Y-50019285D01*
X188997590Y-51256265D02*
X189104270Y-51449305D01*
X168918890Y-52617705D02*
X168850310Y-52721845D01*
X169083990Y-85487845D02*
X169175430Y-85574205D01*
X185510170Y-85879005D02*
X185388250Y-85914565D01*
X165619430Y-84575985D02*
X165614350Y-84357545D01*
X169355770Y-50580625D02*
X169525950Y-50537445D01*
X176396650Y-89120045D02*
X176452530Y-89175925D01*
X166467790Y-50890505D02*
X166343330Y-51070845D01*
X185954670Y-52262105D02*
X186053730Y-52340845D01*
X188060330Y-51200385D02*
X187935870Y-51050525D01*
X187361830Y-53506705D02*
X187364370Y-53659105D01*
X188344810Y-50382505D02*
X188492130Y-50545065D01*
X185670190Y-49003285D02*
X185886090Y-49041385D01*
X185014870Y-49706865D02*
X170214290Y-49706865D01*
X187123070Y-88446945D02*
X186924950Y-88540925D01*
X168294050Y-52239245D02*
X168212770Y-52363705D01*
X185886090Y-88873665D02*
X185670190Y-88911765D01*
X185896250Y-86552105D02*
X186035950Y-86493685D01*
X188862970Y-83006265D02*
X188862970Y-84357545D01*
X185014870Y-51208005D02*
X185164730Y-51215625D01*
X187331350Y-53206985D02*
X187351670Y-53356845D01*
X170963590Y-88208185D02*
X170262550Y-88208185D01*
X168850310Y-85193205D02*
X168918890Y-85297345D01*
X167590470Y-86006005D02*
X167501570Y-85856145D01*
X169543730Y-84817285D02*
X169602150Y-84880785D01*
X170214290Y-85106845D02*
X177514250Y-85106845D01*
X187079890Y-86668945D02*
X187206890Y-86549565D01*
X169962830Y-85937425D02*
X170089830Y-85952665D01*
X178164490Y-86707045D02*
X177313590Y-85957745D01*
X185014870Y-51957305D02*
X185139330Y-51962385D01*
X185703210Y-50537445D02*
X185533030Y-50501885D01*
X169718990Y-52036045D02*
X169602150Y-52079225D01*
X185647330Y-84926505D02*
X185703210Y-84857925D01*
X167293290Y-86864525D02*
X167168830Y-86714665D01*
X187105290Y-85470065D02*
X187168790Y-85335445D01*
X188471810Y-86054265D02*
X188382910Y-86226985D01*
X165868350Y-85861225D02*
X165799770Y-85652945D01*
X187991750Y-85216065D02*
X188034930Y-85045885D01*
X169439590Y-49785605D02*
X169630090Y-49750045D01*
X188860430Y-84553125D02*
X188845190Y-84746165D01*
X166030910Y-51647425D02*
X165944550Y-51848085D01*
X168073070Y-52632945D02*
X168014650Y-52770105D01*
X189530990Y-52686285D02*
X189569090Y-52902185D01*
X188631830Y-87199805D02*
X188492130Y-87369985D01*
X168212770Y-52363705D02*
X168139110Y-52495785D01*
X165799770Y-52262105D02*
X165743890Y-52472925D01*
X166846250Y-86226985D02*
X166757350Y-86054265D01*
X168875710Y-87969425D02*
X168695370Y-87895765D01*
X187521850Y-50636505D02*
X187371990Y-50512045D01*
X176813210Y-87456345D02*
X170214290Y-87456345D01*
X188761370Y-87024545D02*
X188631830Y-87199805D01*
X170214290Y-50456165D02*
X185014870Y-50456165D01*
X176500790Y-89239425D02*
X176541430Y-89305465D01*
X167897810Y-53206985D02*
X167877490Y-53356845D01*
X186808110Y-51030205D02*
X186663330Y-50933685D01*
X168194990Y-85602145D02*
X168278810Y-85729145D01*
X167864790Y-84456605D02*
X167864790Y-53656565D01*
D26*
X178155600Y-94013355D02*
X177434800Y-94013355D01*
D27*
X185439050Y-85094145D02*
X185515250Y-85045885D01*
X187806330Y-87009305D02*
X187666630Y-87149005D01*
X176195990Y-89000665D02*
X176267110Y-89031145D01*
X188786770Y-52782805D02*
X188743590Y-52592305D01*
X170130470Y-85109385D02*
X170214290Y-85106845D01*
X186759850Y-85962825D02*
X186858910Y-85848525D01*
X186533790Y-87895765D02*
X186353450Y-87969425D01*
X185461910Y-51261345D02*
X185609230Y-51296905D01*
X168692830Y-84852845D02*
X168736010Y-84969685D01*
X185792110Y-53212065D02*
X185751470Y-53133325D01*
X176597310Y-89452785D02*
X176610010Y-89528985D01*
X176610010Y-89528985D02*
X176615090Y-89607725D01*
X169558970Y-88911765D02*
X169343070Y-88873665D01*
D26*
X176612550Y-92190905D02*
X176612550Y-90456085D01*
D27*
X185362850Y-87436025D02*
X185533030Y-87413165D01*
X186053730Y-52340845D02*
X186145170Y-52427205D01*
X170064430Y-51215625D02*
X169914570Y-51233405D01*
X169630090Y-49750045D02*
X169825670Y-49727185D01*
X176267110Y-89031145D02*
X176333150Y-89071785D01*
X167547290Y-88104045D02*
X167372030Y-87974505D01*
X185703210Y-53057125D02*
X185647330Y-52988545D01*
X167791130Y-51624565D02*
X167902890Y-51492485D01*
X185627010Y-85835825D02*
X185510170Y-85879005D01*
X185139330Y-51962385D02*
X185266330Y-51977625D01*
X189530990Y-85228765D02*
X189485270Y-85442125D01*
X187638690Y-86006005D02*
X187727590Y-85856145D01*
X170214290Y-87456345D02*
X170041570Y-87451265D01*
X185703210Y-87377605D02*
X185873390Y-87334425D01*
X187501530Y-49686545D02*
X187681870Y-49811005D01*
X187079890Y-51246105D02*
X186947810Y-51134345D01*
X176043590Y-88962565D02*
X176119790Y-88975265D01*
X169914570Y-51233405D02*
X169767250Y-51261345D01*
X186924950Y-49374125D02*
X187123070Y-49468105D01*
X186439810Y-52831065D02*
X186493150Y-52945365D01*
X185599070Y-49750045D02*
X185403490Y-49727185D01*
X188189870Y-87687485D02*
X188027310Y-87834805D01*
X187638690Y-51909045D02*
X187542170Y-51764265D01*
X168918890Y-85297345D02*
X168997630Y-85396405D01*
X179213510Y-85205905D02*
X178614070Y-84606465D01*
X186724290Y-49287765D02*
X186924950Y-49374125D01*
X188113670Y-53557505D02*
X188108590Y-53384785D01*
X188865510Y-84357545D02*
X188860430Y-84553125D01*
X169777410Y-88937165D02*
X169558970Y-88911765D01*
X169777410Y-48977885D02*
X169558970Y-49003285D01*
X170214290Y-51208005D02*
X170064430Y-51215625D01*
X168736010Y-52945365D02*
X168692830Y-53062205D01*
X167288210Y-52533885D02*
X167351710Y-52371325D01*
X186310270Y-49142985D02*
X186518550Y-49211565D01*
X188997590Y-86656245D02*
X188885830Y-86844205D01*
X168695370Y-50019285D02*
X168875710Y-49945625D01*
X187313570Y-88340265D02*
X187123070Y-88446945D01*
X169525950Y-50537445D02*
X169696130Y-50501885D01*
X186846210Y-52117325D02*
X186935110Y-52239245D01*
X186424570Y-86265085D02*
X186541410Y-86171105D01*
X167501570Y-85856145D02*
X167422830Y-85701205D01*
X169437050Y-53212065D02*
X169477690Y-53133325D01*
X170046650Y-85101765D02*
X170130470Y-85109385D01*
X166406830Y-84941745D02*
X166383970Y-84746165D01*
X189594490Y-53120625D02*
X189609730Y-53339065D01*
X167953690Y-85050965D02*
X168001950Y-85195745D01*
X186513470Y-50844785D02*
X186358530Y-50766045D01*
X165743890Y-52472925D02*
X165698170Y-52686285D01*
X185103770Y-52711685D02*
X185014870Y-52706605D01*
X185850530Y-85721525D02*
X185741310Y-85782485D01*
X168149270Y-51246105D02*
X168281350Y-51134345D01*
X186536330Y-53062205D02*
X186571890Y-53184125D01*
X177364390Y-88957485D02*
X185014870Y-88957485D01*
X169274490Y-85652945D02*
X169378630Y-85721525D01*
X168278810Y-85729145D02*
X168367710Y-85848525D01*
X187681870Y-49811005D02*
X187857130Y-49940545D01*
X170214290Y-51957305D02*
X170089830Y-51962385D01*
%TD*%
M02*
